<svg width="1448" height="966" viewBox="0 0 1448 966" fill="none" xmlns="http://www.w3.org/2000/svg">
<rect width="1448" height="966" fill="url(#paint0_linear_6_721)"/>
<path d="M694.632 153H680.808V145H658.984V132.584L676.136 107.688H694.568V133.096H700.712V145H694.632V153ZM680.744 121.64L673.192 133.096H681V121.64H680.744ZM724.213 154.28C721.439 154.28 719.007 153.917 716.917 153.192C714.826 152.467 713.034 151.485 711.541 150.248C710.047 149.011 708.789 147.581 707.765 145.96C706.783 144.339 705.994 142.632 705.397 140.84C704.842 139.048 704.437 137.235 704.181 135.4C703.967 133.565 703.861 131.795 703.861 130.088C703.861 128.424 703.967 126.675 704.181 124.84C704.437 123.005 704.842 121.213 705.397 119.464C705.994 117.715 706.783 116.051 707.765 114.472C708.789 112.893 710.047 111.507 711.541 110.312C713.034 109.117 714.826 108.179 716.917 107.496C719.007 106.771 721.439 106.408 724.213 106.408C728.394 106.408 731.807 107.176 734.453 108.712C737.098 110.205 739.167 112.125 740.661 114.472C742.154 116.776 743.178 119.336 743.733 122.152C744.287 124.925 744.565 127.571 744.565 130.088C744.565 131.752 744.437 133.523 744.181 135.4C743.967 137.235 743.562 139.048 742.965 140.84C742.41 142.632 741.642 144.339 740.661 145.96C739.679 147.581 738.421 149.011 736.885 150.248C735.391 151.485 733.599 152.467 731.509 153.192C729.418 153.917 726.986 154.28 724.213 154.28ZM724.213 119.528C723.274 119.528 722.506 119.848 721.909 120.488C721.311 121.128 720.842 121.96 720.501 122.984C720.159 124.008 719.925 125.16 719.797 126.44C719.669 127.677 719.605 128.893 719.605 130.088C719.605 131.325 719.669 132.605 719.797 133.928C719.925 135.208 720.159 136.381 720.501 137.448C720.842 138.515 721.311 139.389 721.909 140.072C722.506 140.712 723.274 141.032 724.213 141.032C725.151 141.032 725.919 140.712 726.517 140.072C727.157 139.389 727.626 138.515 727.925 137.448C728.266 136.381 728.501 135.208 728.629 133.928C728.757 132.605 728.821 131.325 728.821 130.088C728.821 128.893 728.757 127.677 728.629 126.44C728.501 125.16 728.266 124.008 727.925 122.984C727.626 121.96 727.157 121.128 726.517 120.488C725.919 119.848 725.151 119.528 724.213 119.528ZM784.257 153H770.433V145H748.609V132.584L765.761 107.688H784.193V133.096H790.337V145H784.257V153ZM770.369 121.64L762.817 133.096H770.625V121.64H770.369Z" fill="black"/>
<g clip-path="url(#clip0_6_721)">
<path d="M751.3 479.8C745.6 492.2 744.4 506.3 744.9 519.9C745.4 535.6 748 551.6 755.6 565.5C763.2 579.3 776.3 590.7 791.9 593.2C806.9 595.6 822.5 589.5 833.6 579.1C844.7 568.7 851.6 554.4 855.4 539.7C861.1 517.7 859.8 492.9 847.1 474.1C824 440 769 441.6 751.3 479.8Z" fill="white"/>
<path d="M850.2 540C846.9 552.9 840.8 565.4 831.1 574.6C821.4 583.7 807.7 589.1 794.5 587C782 585 771.2 576.4 764.4 565.6C770.9 572.8 779.4 578.1 788.9 579.6C802.1 581.7 815.8 576.4 825.5 567.2C835.2 558.1 841.3 545.6 844.6 532.7C849.4 514.1 848.5 493.2 838.5 476.9C840.1 478.6 841.6 480.5 843 482.6C854.1 498.9 855.2 520.7 850.2 540Z" fill="#E6E6E6"/>
<path d="M798.5 596C796.1 596 793.8 595.8 791.4 595.4C776.2 592.9 762 582.1 753.5 566.5C746.7 554.2 743.1 538.9 742.5 519.9C741.9 502.8 744 489.7 749.1 478.7C757.4 460.8 774.5 449.2 795 447.5C816.6 445.8 837.2 455.4 848.9 472.6C860.9 490.3 864.1 514.9 857.6 540.1C853.3 556.9 845.5 570.9 835.1 580.6C824.7 590.5 811.4 596 798.5 596ZM800.1 452.1C798.6 452.1 797 452.2 795.5 452.3C776.7 453.8 761 464.5 753.4 480.8C748.6 491.1 746.7 503.5 747.2 519.9C747.8 538.2 751.2 552.7 757.6 564.4C765.5 578.8 778.4 588.7 792.2 590.9C805.7 593.1 820.6 588.1 832 577.4C841.7 568.3 849 555 853.1 539.1C859.3 515.2 856.3 492 845.1 475.4C835.2 460.7 818.3 452.1 800.1 452.1Z" fill="#333333"/>
<path d="M612.5 474.9C604.5 488.4 601 504.2 599.5 519.9C597.5 540.6 600 564 615.5 577.9C633 593.5 662.3 590.2 679.7 574.4C697.1 558.6 703.8 533.7 702.6 510.2C701.8 494.3 697.5 478.2 687.4 465.9C664.5 438.1 629.6 446.2 612.5 474.9Z" fill="white"/>
<path d="M680.8 569.8C680.5 570.1 680.1 570.4 679.8 570.8C663.5 585.5 636 588.7 619.6 574C605 561 602.7 539.1 604.6 519.6C606 504.9 609.3 490.1 616.8 477.4C621.2 470 626.9 464.1 633.2 459.9C629.6 463.3 626.4 467.4 623.6 472C616.1 484.7 612.8 499.5 611.4 514.2C609.6 533.7 611.8 555.6 626.4 568.6C641 581.6 664.3 580.6 680.8 569.8Z" fill="#E6E6E6"/>
<path d="M644.2 590.5C633 590.5 622.1 586.9 614 579.6C596.9 564.3 595.4 538.6 597.2 519.6C599 500.8 603.3 485.7 610.5 473.6C619.9 457.8 634.9 447.6 650.7 446.4C665.1 445.3 678.8 451.7 689.3 464.3C698.6 475.7 704.1 491.5 705 510C706.4 537.1 697.8 561.1 681.3 576C670.8 585.7 657.2 590.5 644.2 590.5ZM614.5 476.1C607.7 487.6 603.5 502 601.8 520.1C600.1 538 601.4 562.2 617 576.1C634.3 591.5 662.5 586.8 678.1 572.7C693.5 558.8 701.6 536.1 700.2 510.4C699.6 498.2 696.5 480.8 685.5 467.4C676.2 456 663.9 450.2 651 451.2C636.8 452.3 623.1 461.6 614.5 476.1Z" fill="#333333"/>
<path d="M661.4 531C663.9 532.5 667.3 532.4 669.8 530.8C676 527 671.2 518.5 665.1 518.4C658.2 518.3 655.4 527.4 661.4 531Z" fill="#333333"/>
<path d="M770.6 529.7C772.5 530.9 775.1 530.8 777.1 529.6C781.9 526.7 778.2 520.1 773.4 520C768.2 519.9 766 526.9 770.6 529.7Z" fill="#333333"/>
<path d="M696.5 322C698.1 327.6 699.4 333.3 700.4 339C702.2 348.7 696.7 358.3 687.4 361.7C674.2 366.6 661.2 372.1 647.6 376.2C634.2 380.2 620.5 384.4 608.9 392.2C597.3 400 588 412.3 587 426.3C577 410.4 582.9 389 596.2 375.7C609.5 362.4 627.8 355.7 645.4 349.3C663.1 342.9 683.7 335.7 696.5 322Z" fill="#333333"/>
<path d="M751 322C748.8 329.8 747.1 337.7 746 345.7C745.1 351.8 748.8 357.7 754.6 359.7C769.8 365 784.4 371.5 799.8 376.2C813.2 380.2 826.9 384.4 838.5 392.2C850.1 400 859.6 412.3 860.5 426.3C870.5 410.4 864.6 389 851.4 375.7C838.1 362.4 819.8 355.7 802.2 349.3C784.5 342.9 763.9 335.7 751 322Z" fill="#333333"/>
<path d="M773.7 644.9H665.4C664.1 644.9 663.1 643.9 663.1 642.6C663.1 641.3 664.1 640.3 665.4 640.3H773.7C775 640.3 776 641.3 776 642.6C776 643.9 775 644.9 773.7 644.9Z" fill="#333333"/>
</g>
<path d="M437.976 233.448C434.008 233.448 430.979 232.445 428.888 230.44C426.797 228.392 425.752 225.555 425.752 221.928V199.272C425.752 195.645 426.797 192.829 428.888 190.824C430.979 188.776 434.008 187.752 437.976 187.752C441.987 187.752 445.037 188.776 447.128 190.824C449.219 192.829 450.264 195.645 450.264 199.272V221.928C450.264 225.555 449.219 228.392 447.128 230.44C445.037 232.445 441.987 233.448 437.976 233.448ZM437.976 229.224C439.853 229.224 441.432 228.691 442.712 227.624C443.992 226.515 444.632 224.979 444.632 223.016V198.184C444.632 196.221 443.992 194.707 442.712 193.64C441.432 192.531 439.853 191.976 437.976 191.976C436.099 191.976 434.52 192.531 433.24 193.64C432.003 194.707 431.384 196.221 431.384 198.184V223.016C431.384 224.979 432.003 226.515 433.24 227.624C434.52 228.691 436.099 229.224 437.976 229.224ZM464.968 233.448C461.981 233.448 459.656 232.701 457.992 231.208C456.371 229.672 455.56 227.56 455.56 224.872V207.848C455.56 205.16 456.371 203.069 457.992 201.576C459.656 200.04 461.981 199.272 464.968 199.272C467.955 199.272 470.259 200.04 471.88 201.576C473.544 203.069 474.376 205.16 474.376 207.848V224.872C474.376 227.56 473.544 229.672 471.88 231.208C470.259 232.701 467.955 233.448 464.968 233.448ZM464.968 229.48C466.333 229.48 467.4 229.096 468.168 228.328C468.979 227.517 469.384 226.365 469.384 224.872V207.848C469.384 206.355 468.979 205.224 468.168 204.456C467.4 203.645 466.333 203.24 464.968 203.24C463.603 203.24 462.515 203.645 461.704 204.456C460.936 205.224 460.552 206.355 460.552 207.848V224.872C460.552 226.365 460.936 227.517 461.704 228.328C462.515 229.096 463.603 229.48 464.968 229.48ZM488.906 233.448C485.919 233.448 483.594 232.701 481.93 231.208C480.308 229.672 479.498 227.56 479.498 224.872V207.848C479.498 205.16 480.308 203.069 481.93 201.576C483.594 200.04 485.919 199.272 488.906 199.272C491.892 199.272 494.196 200.04 495.818 201.576C497.482 203.069 498.314 205.16 498.314 207.848V224.872C498.314 227.56 497.482 229.672 495.818 231.208C494.196 232.701 491.892 233.448 488.906 233.448ZM488.906 229.48C490.271 229.48 491.338 229.096 492.106 228.328C492.916 227.517 493.322 226.365 493.322 224.872V207.848C493.322 206.355 492.916 205.224 492.106 204.456C491.338 203.645 490.271 203.24 488.906 203.24C487.54 203.24 486.452 203.645 485.642 204.456C484.874 205.224 484.49 206.355 484.49 207.848V224.872C484.49 226.365 484.874 227.517 485.642 228.328C486.452 229.096 487.54 229.48 488.906 229.48ZM504.715 199.72H515.083C517.43 199.72 519.414 200.488 521.035 202.024C522.699 203.56 523.531 205.48 523.531 207.784V225C523.531 227.304 522.72 229.224 521.099 230.76C519.478 232.253 517.494 233 515.147 233H509.835V243.24H504.715V199.72ZM514.059 229.224C515.254 229.224 516.278 228.819 517.131 228.008C517.984 227.197 518.411 226.195 518.411 225V207.784C518.411 206.589 517.984 205.587 517.131 204.776C516.278 203.965 515.254 203.56 514.059 203.56H509.835V229.224H514.059ZM527.67 229.16H533.11C534.945 229.16 536.267 228.669 537.078 227.688C537.931 226.664 538.358 225.341 538.358 223.72C538.358 222.44 537.974 221.352 537.206 220.456C536.438 219.56 535.286 218.515 533.75 217.32C532.427 216.253 531.361 215.336 530.55 214.568C529.782 213.757 529.099 212.776 528.502 211.624C527.947 210.429 527.67 209.064 527.67 207.528C527.67 205.267 528.417 203.411 529.91 201.96C531.446 200.467 533.494 199.72 536.054 199.72H541.622V203.56H537.014C533.985 203.56 532.47 204.989 532.47 207.848C532.47 208.957 532.811 209.917 533.494 210.728C534.177 211.539 535.243 212.499 536.694 213.608C538.017 214.632 539.105 215.571 539.958 216.424C540.811 217.235 541.537 218.28 542.134 219.56C542.731 220.797 543.03 222.269 543.03 223.976C543.03 227.005 542.219 229.267 540.598 230.76C539.019 232.253 536.779 233 533.878 233H527.67V229.16ZM558.786 222.44V188.2H563.907V222.44H558.786ZM558.786 233V226.408H563.907V233H558.786ZM588.443 233C586.096 233 584.219 232.296 582.811 230.888C581.445 229.48 580.763 227.581 580.763 225.192V208.168C580.763 205.48 581.467 203.411 582.875 201.96C584.283 200.467 586.331 199.72 589.019 199.72H596.123V203.56H589.147C588.165 203.56 587.376 203.901 586.779 204.584C586.181 205.224 585.883 206.056 585.883 207.08V225.64C585.883 226.664 586.181 227.517 586.779 228.2C587.419 228.84 588.229 229.16 589.211 229.16H596.123V233H588.443ZM607.246 233C604.899 233 603.022 232.296 601.614 230.888C600.249 229.48 599.566 227.581 599.566 225.192V208.168C599.566 205.395 600.334 203.219 601.87 201.64C603.406 200.061 605.689 199.272 608.718 199.272C611.747 199.272 614.009 200.061 615.502 201.64C617.038 203.219 617.806 205.395 617.806 208.168V211.112C617.806 212.904 617.294 214.269 616.27 215.208C615.246 216.104 613.902 216.787 612.238 217.256L604.686 219.368V225.64C604.686 226.664 604.985 227.517 605.582 228.2C606.222 228.84 607.033 229.16 608.014 229.16H614.926V233H607.246ZM608.59 214.248C609.998 213.864 610.937 213.587 611.406 213.416C611.918 213.203 612.259 212.904 612.43 212.52C612.601 212.136 612.686 211.496 612.686 210.6V207.08C612.686 205.715 612.323 204.712 611.598 204.072C610.915 203.432 609.955 203.112 608.718 203.112C607.523 203.112 606.542 203.453 605.774 204.136C605.049 204.819 604.686 205.8 604.686 207.08V215.336L608.59 214.248ZM632.183 233C629.836 233 627.98 232.296 626.615 230.888C625.249 229.48 624.567 227.581 624.567 225.192V203.56H620.727V199.72H624.567V190.056L629.687 188.136V199.72H634.807V203.56H629.687V225.64C629.687 226.664 629.964 227.517 630.519 228.2C631.116 228.84 631.905 229.16 632.887 229.16H634.807V233H632.183ZM649.183 233C646.836 233 644.98 232.296 643.615 230.888C642.249 229.48 641.567 227.581 641.567 225.192V203.56H637.727V199.72H641.567V190.056L646.687 188.136V199.72H651.807V203.56H646.687V225.64C646.687 226.664 646.964 227.517 647.519 228.2C648.116 228.84 648.905 229.16 649.887 229.16H651.807V233H649.183ZM663.559 233C661.212 233 659.335 232.296 657.927 230.888C656.561 229.48 655.879 227.581 655.879 225.192V208.168C655.879 205.395 656.647 203.219 658.183 201.64C659.719 200.061 662.001 199.272 665.031 199.272C668.06 199.272 670.321 200.061 671.815 201.64C673.351 203.219 674.119 205.395 674.119 208.168V211.112C674.119 212.904 673.607 214.269 672.583 215.208C671.559 216.104 670.215 216.787 668.551 217.256L660.999 219.368V225.64C660.999 226.664 661.297 227.517 661.895 228.2C662.535 228.84 663.345 229.16 664.327 229.16H671.239V233H663.559ZM664.903 214.248C666.311 213.864 667.249 213.587 667.719 213.416C668.231 213.203 668.572 212.904 668.743 212.52C668.913 212.136 668.999 211.496 668.999 210.6V207.08C668.999 205.715 668.636 204.712 667.911 204.072C667.228 203.432 666.268 203.112 665.031 203.112C663.836 203.112 662.855 203.453 662.087 204.136C661.361 204.819 660.999 205.8 660.999 207.08V215.336L664.903 214.248ZM688.84 199.72H699.208C701.555 199.72 703.539 200.488 705.16 202.024C706.824 203.56 707.656 205.48 707.656 207.784V225C707.656 227.304 706.845 229.224 705.224 230.76C703.603 232.253 701.619 233 699.272 233H693.96V243.24H688.84V199.72ZM698.184 229.224C699.379 229.224 700.403 228.819 701.256 228.008C702.109 227.197 702.536 226.195 702.536 225V207.784C702.536 206.589 702.109 205.587 701.256 204.776C700.403 203.965 699.379 203.56 698.184 203.56H693.96V229.224H698.184ZM720.499 233C718.963 233 717.534 232.616 716.211 231.848C714.931 231.08 713.907 230.035 713.139 228.712C712.414 227.389 712.051 225.896 712.051 224.232V220.904C712.051 218.899 712.542 217.213 713.523 215.848C714.547 214.483 715.806 213.523 717.299 212.968L725.235 210.024V207.016C725.235 205.992 724.915 205.16 724.275 204.52C723.678 203.837 722.888 203.496 721.907 203.496H714.675V199.72H722.355C724.702 199.72 726.558 200.424 727.923 201.832C729.331 203.197 730.035 205.075 730.035 207.464V233H720.499ZM725.235 229.096V214.056L719.603 216.168C718.494 216.595 717.704 217.171 717.235 217.896C716.808 218.621 716.595 219.773 716.595 221.352V224.936C716.595 226.088 717.022 227.069 717.875 227.88C718.728 228.691 719.752 229.096 720.947 229.096H725.235ZM739.778 239.4H746.37C747.351 239.4 748.119 239.059 748.674 238.376C749.271 237.736 749.57 236.904 749.57 235.88V233.064H744.258C741.911 233.064 739.927 232.296 738.306 230.76C736.685 229.224 735.874 227.304 735.874 225V207.784C735.874 205.48 736.685 203.56 738.306 202.024C739.97 200.488 741.975 199.72 744.322 199.72H754.754V235.432C754.754 237.821 754.093 239.72 752.77 241.128C751.49 242.536 749.677 243.24 747.33 243.24H739.778V239.4ZM749.634 229.224V203.56H745.346C744.151 203.56 743.127 203.965 742.274 204.776C741.421 205.587 740.994 206.589 740.994 207.784V225C740.994 226.195 741.421 227.197 742.274 228.008C743.127 228.819 744.151 229.224 745.346 229.224H749.634ZM768.434 233C766.087 233 764.21 232.296 762.802 230.888C761.436 229.48 760.754 227.581 760.754 225.192V208.168C760.754 205.395 761.522 203.219 763.058 201.64C764.594 200.061 766.876 199.272 769.906 199.272C772.935 199.272 775.196 200.061 776.69 201.64C778.226 203.219 778.994 205.395 778.994 208.168V211.112C778.994 212.904 778.482 214.269 777.458 215.208C776.434 216.104 775.09 216.787 773.426 217.256L765.874 219.368V225.64C765.874 226.664 766.172 227.517 766.77 228.2C767.41 228.84 768.22 229.16 769.202 229.16H776.114V233H768.434ZM769.778 214.248C771.186 213.864 772.124 213.587 772.594 213.416C773.106 213.203 773.447 212.904 773.618 212.52C773.788 212.136 773.874 211.496 773.874 210.6V207.08C773.874 205.715 773.511 204.712 772.786 204.072C772.103 203.432 771.143 203.112 769.906 203.112C768.711 203.112 767.73 203.453 766.962 204.136C766.236 204.819 765.874 205.8 765.874 207.08V215.336L769.778 214.248ZM793.715 199.72H797.683L798.259 201.576L800.883 200.808C802.675 200.253 804.083 199.869 805.107 199.656C806.174 199.4 807.176 199.272 808.115 199.272C809.651 199.272 810.782 199.805 811.507 200.872C812.232 201.939 812.595 203.325 812.595 205.032V233H807.475V206.696C807.475 205.459 807.39 204.605 807.219 204.136C807.048 203.624 806.622 203.368 805.939 203.368C805.598 203.368 803.23 204.051 798.835 205.416V233H793.715V199.72ZM819.139 200.36L819.971 188.2H825.091L824.579 200.36H819.139ZM839.309 233C836.962 233 835.085 232.296 833.677 230.888C832.311 229.48 831.629 227.581 831.629 225.192V208.168C831.629 205.395 832.397 203.219 833.933 201.64C835.469 200.061 837.751 199.272 840.781 199.272C843.81 199.272 846.071 200.061 847.565 201.64C849.101 203.219 849.869 205.395 849.869 208.168V211.112C849.869 212.904 849.357 214.269 848.333 215.208C847.309 216.104 845.965 216.787 844.301 217.256L836.749 219.368V225.64C836.749 226.664 837.047 227.517 837.645 228.2C838.285 228.84 839.095 229.16 840.077 229.16H846.989V233H839.309ZM840.653 214.248C842.061 213.864 842.999 213.587 843.469 213.416C843.981 213.203 844.322 212.904 844.493 212.52C844.663 212.136 844.749 211.496 844.749 210.6V207.08C844.749 205.715 844.386 204.712 843.661 204.072C842.978 203.432 842.018 203.112 840.781 203.112C839.586 203.112 838.605 203.453 837.837 204.136C837.111 204.819 836.749 205.8 836.749 207.08V215.336L840.653 214.248ZM851.765 233L860.981 216.296L852.405 199.72H857.333L863.349 211.496L869.429 199.72H874.357L865.781 216.296L874.997 233H869.621L863.349 220.84L857.141 233H851.765ZM879.153 194.28V189.16H884.273V194.28H879.153ZM879.153 233V199.72H884.273V233H879.153ZM890.045 229.16H895.485C897.32 229.16 898.642 228.669 899.453 227.688C900.306 226.664 900.733 225.341 900.733 223.72C900.733 222.44 900.349 221.352 899.581 220.456C898.813 219.56 897.661 218.515 896.125 217.32C894.802 216.253 893.736 215.336 892.925 214.568C892.157 213.757 891.474 212.776 890.877 211.624C890.322 210.429 890.045 209.064 890.045 207.528C890.045 205.267 890.792 203.411 892.285 201.96C893.821 200.467 895.869 199.72 898.429 199.72H903.997V203.56H899.389C896.36 203.56 894.845 204.989 894.845 207.848C894.845 208.957 895.186 209.917 895.869 210.728C896.552 211.539 897.618 212.499 899.069 213.608C900.392 214.632 901.48 215.571 902.333 216.424C903.186 217.235 903.912 218.28 904.509 219.56C905.106 220.797 905.405 222.269 905.405 223.976C905.405 227.005 904.594 229.267 902.973 230.76C901.394 232.253 899.154 233 896.253 233H890.045V229.16ZM920.433 233C918.086 233 916.23 232.296 914.865 230.888C913.499 229.48 912.817 227.581 912.817 225.192V203.56H908.977V199.72H912.817V190.056L917.937 188.136V199.72H923.057V203.56H917.937V225.64C917.937 226.664 918.214 227.517 918.769 228.2C919.366 228.84 920.155 229.16 921.137 229.16H923.057V233H920.433ZM934.809 233C932.462 233 930.585 232.296 929.177 230.888C927.811 229.48 927.129 227.581 927.129 225.192V208.168C927.129 205.395 927.897 203.219 929.433 201.64C930.969 200.061 933.251 199.272 936.281 199.272C939.31 199.272 941.571 200.061 943.065 201.64C944.601 203.219 945.369 205.395 945.369 208.168V211.112C945.369 212.904 944.857 214.269 943.833 215.208C942.809 216.104 941.465 216.787 939.801 217.256L932.249 219.368V225.64C932.249 226.664 932.547 227.517 933.145 228.2C933.785 228.84 934.595 229.16 935.577 229.16H942.489V233H934.809ZM936.153 214.248C937.561 213.864 938.499 213.587 938.969 213.416C939.481 213.203 939.822 212.904 939.993 212.52C940.163 212.136 940.249 211.496 940.249 210.6V207.08C940.249 205.715 939.886 204.712 939.161 204.072C938.478 203.432 937.518 203.112 936.281 203.112C935.086 203.112 934.105 203.453 933.337 204.136C932.611 204.819 932.249 205.8 932.249 207.08V215.336L936.153 214.248ZM960.09 199.72H970.458C972.805 199.72 974.789 200.488 976.41 202.024C978.074 203.56 978.906 205.48 978.906 207.784V225C978.906 227.304 978.095 229.224 976.474 230.76C974.853 232.253 972.869 233 970.522 233H965.21V243.24H960.09V199.72ZM969.434 229.224C970.629 229.224 971.653 228.819 972.506 228.008C973.359 227.197 973.786 226.195 973.786 225V207.784C973.786 206.589 973.359 205.587 972.506 204.776C971.653 203.965 970.629 203.56 969.434 203.56H965.21V229.224H969.434ZM991.749 233C990.213 233 988.784 232.616 987.461 231.848C986.181 231.08 985.157 230.035 984.389 228.712C983.664 227.389 983.301 225.896 983.301 224.232V220.904C983.301 218.899 983.792 217.213 984.773 215.848C985.797 214.483 987.056 213.523 988.549 212.968L996.485 210.024V207.016C996.485 205.992 996.165 205.16 995.525 204.52C994.928 203.837 994.138 203.496 993.157 203.496H985.925V199.72H993.605C995.952 199.72 997.808 200.424 999.173 201.832C1000.58 203.197 1001.29 205.075 1001.29 207.464V233H991.749ZM996.485 229.096V214.056L990.853 216.168C989.744 216.595 988.954 217.171 988.485 217.896C988.058 218.621 987.845 219.773 987.845 221.352V224.936C987.845 226.088 988.272 227.069 989.125 227.88C989.978 228.691 991.002 229.096 992.197 229.096H996.485ZM1006.42 229.16H1011.86C1013.69 229.16 1015.02 228.669 1015.83 227.688C1016.68 226.664 1017.11 225.341 1017.11 223.72C1017.11 222.44 1016.72 221.352 1015.96 220.456C1015.19 219.56 1014.04 218.515 1012.5 217.32C1011.18 216.253 1010.11 215.336 1009.3 214.568C1008.53 213.757 1007.85 212.776 1007.25 211.624C1006.7 210.429 1006.42 209.064 1006.42 207.528C1006.42 205.267 1007.17 203.411 1008.66 201.96C1010.2 200.467 1012.24 199.72 1014.8 199.72H1020.37V203.56H1015.76C1012.73 203.56 1011.22 204.989 1011.22 207.848C1011.22 208.957 1011.56 209.917 1012.24 210.728C1012.93 211.539 1013.99 212.499 1015.44 213.608C1016.77 214.632 1017.85 215.571 1018.71 216.424C1019.56 217.235 1020.29 218.28 1020.88 219.56C1021.48 220.797 1021.78 222.269 1021.78 223.976C1021.78 227.005 1020.97 229.267 1019.35 230.76C1017.77 232.253 1015.53 233 1012.63 233H1006.42V229.16Z" fill="black"/>
<defs>
<linearGradient id="paint0_linear_6_721" x1="1409" y1="-347.5" x2="724" y2="966" gradientUnits="userSpaceOnUse">
<stop stop-color="#AEECFF"/>
<stop offset="1" stop-color="#0085FF"/>
</linearGradient>
<clipPath id="clip0_6_721">
<rect width="283.5" height="322.9" fill="white" transform="translate(582 322)"/>
</clipPath>
</defs>
</svg>
