<svg width="30" height="33" viewBox="0 0 30 33" fill="none" xmlns="http://www.w3.org/2000/svg">
<g clip-path="url(#clip0_39_125)">
<path d="M20.8149 21.3786C21.1288 21.7973 21.28 22.3352 21.2358 22.8757C21.1916 23.4162 20.9554 23.9158 20.5786 24.2661C19.3495 25.3777 17.83 26.029 16.2411 26.1251C15.2361 26.114 14.2686 25.7032 13.5174 24.9687C13.4236 24.8824 13.3251 24.8025 13.2224 24.7294C12.7186 24.9326 12.2527 25.235 11.8474 25.6218C11.4711 25.9716 10.9849 26.1444 10.4937 26.103C10.0026 26.0615 9.54596 25.8091 9.22262 25.4003C8.89928 24.9915 8.73517 24.4592 8.76576 23.9184C8.79636 23.3776 9.0192 22.8717 9.38613 22.5102C10.4695 21.4344 11.8403 20.773 13.2936 20.6251C14.2328 20.6448 15.1343 21.0352 15.8336 21.7251C16.1536 22.0001 16.1711 22.0001 16.2411 22.0001C16.9519 21.9071 17.6242 21.5943 18.1799 21.0981C18.5634 20.7518 19.0562 20.5868 19.5501 20.6394C20.044 20.692 20.4988 20.9578 20.8149 21.3786ZM19.3749 13.7501H10.6249C10.1276 13.7501 9.65068 13.9674 9.29905 14.3542C8.94742 14.741 8.74988 15.2656 8.74988 15.8126C8.74988 16.3596 8.94742 16.8842 9.29905 17.271C9.65068 17.6578 10.1276 17.8751 10.6249 17.8751H19.3749C19.8722 17.8751 20.3491 17.6578 20.7007 17.271C21.0523 16.8842 21.2499 16.3596 21.2499 15.8126C21.2499 15.2656 21.0523 14.741 20.7007 14.3542C20.3491 13.9674 19.8722 13.7501 19.3749 13.7501ZM27.4999 9.84095V25.4376C27.4979 27.4426 26.7729 29.3649 25.484 30.7827C24.1952 32.2004 22.4476 32.9979 20.6249 33.0001H9.37488C7.55212 32.9979 5.80459 32.2004 4.51571 30.7827C3.22683 29.3649 2.50186 27.4426 2.49988 25.4376V7.56257C2.50186 5.55754 3.22683 3.63526 4.51571 2.21749C5.80459 0.799719 7.55212 0.00225687 9.37488 7.31403e-05H18.5536C19.4568 -0.0026082 20.3515 0.19179 21.186 0.572017C22.0204 0.952243 22.778 1.51075 23.4149 2.2152L25.4861 4.49357C26.1265 5.19416 26.6343 6.02751 26.9799 6.94538C27.3256 7.86326 27.5023 8.84744 27.4999 9.84095ZM23.7499 25.4376V9.62507H21.2499C20.5868 9.62507 19.951 9.33534 19.4821 8.81962C19.0133 8.30389 18.7499 7.60442 18.7499 6.87507V4.12507H9.37488C8.54608 4.12507 7.75122 4.48724 7.16517 5.13189C6.57912 5.77655 6.24988 6.65089 6.24988 7.56257V25.4376C6.24988 26.3493 6.57912 27.2236 7.16517 27.8683C7.75122 28.5129 8.54608 28.8751 9.37488 28.8751H20.6249C21.4537 28.8751 22.2485 28.5129 22.8346 27.8683C23.4206 27.2236 23.7499 26.3493 23.7499 25.4376Z" fill="#26124E"/>
</g>
<defs>
<clipPath id="clip0_39_125">
<rect width="30" height="33" fill="white"/>
</clipPath>
</defs>
</svg>
