<svg width="22" height="19" viewBox="0 0 22 19" fill="none" xmlns="http://www.w3.org/2000/svg">
<g clip-path="url(#clip0_100_57)">
<path d="M10.4981 11.0982C6.59146 11.4032 3.61519 14.254 3.66705 17.6413V17.8131C3.66705 18.469 4.28266 19.0006 5.04205 19.0006C5.80144 19.0006 6.41705 18.469 6.41705 17.8131V17.5938C6.37571 15.514 8.1529 13.7405 10.5421 13.4772C13.064 13.2612 15.3112 14.8518 15.5613 17.0298C15.5761 17.1586 15.5836 17.2879 15.5837 17.4173V17.8131C15.5837 18.469 16.1993 19.0006 16.9587 19.0006C17.7181 19.0006 18.3337 18.469 18.3337 17.8131V17.4173C18.3292 13.9155 15.0386 11.0799 10.984 11.0838C10.8219 11.084 10.6598 11.0888 10.4981 11.0982Z" fill="#26124E"/>
<path d="M11.0004 9.5C14.038 9.5 16.5004 7.37334 16.5004 4.75C16.5004 2.12666 14.038 0 11.0004 0C7.96288 0 5.50043 2.12666 5.50043 4.75C5.50344 7.37226 7.96413 9.49737 11.0004 9.5ZM11.0004 2.375C12.5192 2.375 13.7504 3.43833 13.7504 4.75C13.7504 6.06167 12.5192 7.125 11.0004 7.125C9.48165 7.125 8.25043 6.06167 8.25043 4.75C8.25043 3.43833 9.48165 2.375 11.0004 2.375Z" fill="#26124E"/>
</g>
<defs>
<clipPath id="clip0_100_57">
<rect width="22" height="19" fill="white"/>
</clipPath>
</defs>
</svg>
