<svg width="33" height="33" viewBox="0 0 33 33" fill="none" xmlns="http://www.w3.org/2000/svg">
<g clip-path="url(#clip0_39_107)">
<path d="M27.4998 19.4439V16.5C27.4968 14.5719 26.9872 12.6785 26.0218 11.0095C25.0565 9.34049 23.6695 7.95451 21.9998 6.99048V5.49998C21.9998 4.04129 21.4203 2.64235 20.3888 1.6109C19.3574 0.579447 17.9584 -1.52588e-05 16.4998 -1.52588e-05C15.0411 -1.52588e-05 13.6421 0.579447 12.6107 1.6109C11.5792 2.64235 10.9998 4.04129 10.9998 5.49998V6.99048C9.33001 7.95451 7.94297 9.34049 6.97767 11.0095C6.01236 12.6785 5.5027 14.5719 5.49976 16.5V19.4439C4.32128 19.7459 3.2766 20.4311 2.52992 21.3916C1.78324 22.352 1.37689 23.5334 1.37476 24.75V27.5C1.37476 28.9587 1.95422 30.3576 2.98567 31.3891C4.01712 32.4205 5.41607 33 6.87476 33H26.1248C27.5834 33 28.9824 32.4205 30.0138 31.3891C31.0453 30.3576 31.6248 28.9587 31.6248 27.5V24.75C31.6226 23.5334 31.2163 22.352 30.4696 21.3916C29.7229 20.4311 28.6782 19.7459 27.4998 19.4439ZM23.3748 28.875H9.62476V28.5202C10.3616 27.3647 11.3777 26.4136 12.5794 25.7547C13.781 25.0957 15.1293 24.7503 16.4998 24.7503C17.8702 24.7503 19.2185 25.0957 20.4201 25.7547C21.6218 26.4136 22.6379 27.3647 23.3748 28.5202V28.875ZM23.3748 22.7384C21.3466 21.361 18.9514 20.6246 16.4998 20.6246C14.0481 20.6246 11.653 21.361 9.62476 22.7384V16.5C9.62476 14.6766 10.3491 12.9279 11.6384 11.6386C12.9277 10.3493 14.6764 9.62498 16.4998 9.62498C18.3231 9.62498 20.0718 10.3493 21.3611 11.6386C22.6504 12.9279 23.3748 14.6766 23.3748 16.5V22.7384ZM20.6248 15.8125C20.6248 16.3595 20.4075 16.8841 20.0207 17.2709C19.6339 17.6577 19.1093 17.875 18.5623 17.875H14.4373C13.8902 17.875 13.3656 17.6577 12.9788 17.2709C12.5921 16.8841 12.3748 16.3595 12.3748 15.8125C12.3748 15.2655 12.5921 14.7409 12.9788 14.3541C13.3656 13.9673 13.8902 13.75 14.4373 13.75H18.5623C19.1093 13.75 19.6339 13.9673 20.0207 14.3541C20.4075 14.7409 20.6248 15.2655 20.6248 15.8125Z" fill="#26124E"/>
</g>
<defs>
<clipPath id="clip0_39_107">
<rect width="33" height="33" fill="white"/>
</clipPath>
</defs>
</svg>
