<svg width="53" height="60" viewBox="0 0 53 60" fill="none" xmlns="http://www.w3.org/2000/svg">
<path d="M26.4709 44.0052C15.8175 44.0052 7.18311 47.5874 7.18311 52.0026C7.18311 56.4178 15.8175 60 26.4709 60C37.1243 60 45.7587 56.4178 45.7587 52.0026C45.7587 47.5874 37.1243 44.0052 26.4709 44.0052Z" fill="#126B99"/>
<path d="M0.425551 28.2996C0.587263 26.8981 2.73852 28.2996 2.73852 28.2996C2.73852 28.2996 -0.525118 24.4577 1.0724 23.262C2.67482 22.0614 5.26221 25.7612 7.8104 25.7612C8.12892 25.7612 8.52585 25.7073 8.98648 25.5995C12.1913 24.8595 18.3903 21.8605 21.7862 21.1696C24.3344 20.655 28.387 20.8167 30.8715 20.9883C30.8715 16.769 28.9408 15.4067 28.9506 12.7066C28.9506 9.12448 32.1456 6.21857 36.0855 6.21857C39.5647 6.21857 42.4608 8.48253 43.093 11.4767C44.8375 13.8974 47.4935 14.6423 50.6837 14.4071C51.4628 14.3532 51.9332 15.2989 51.4089 15.8723C49.9045 17.5041 45.6706 17.8814 41.1083 17.3081C40.5301 17.8373 39.8441 18.2735 39.0845 18.5871V18.592C39.0845 18.592 43.828 25.3839 40.5399 33.8664C37.977 40.4721 32.469 42.5057 28.6712 43.0889V47.117C28.6712 48.0186 29.2887 48.7978 30.1658 48.9987L36.8352 50.5227C35.517 51.0079 33.9832 51.2284 31.8516 51.2284L34.4635 52.0516C29.1907 53.5659 24.0404 53.7962 19.0665 52.0516L22.1832 50.0523C22.8349 49.6309 23.2318 48.9056 23.2318 48.1216V43.2457C19.5811 43.1183 14.4504 42.6527 11.912 41.1042C9.58433 39.688 6.97733 36.8164 5.93846 35.606C5.65914 35.2875 5.31121 35.0425 4.90938 34.9053C4.54675 34.7681 4.07632 34.5378 3.7627 34.1408C3.50298 33.8125 3.40007 33.3911 3.36577 33.0235C3.31186 32.4355 3.05704 31.8916 2.62581 31.4946C1.70455 30.6714 0.307943 29.2454 0.425551 28.2996Z" fill="#B2E5FF"/>
<path d="M22.183 50.0522L19.0664 52.0516C24.0403 53.7961 29.1906 53.5658 34.4633 52.0516L31.8514 51.2283H31.8465L27.054 49.7239C26.3973 49.5181 25.9514 48.9056 25.9514 48.2146V43.2946C25.236 43.2946 24.2951 43.2848 23.2317 43.2456V48.1215C23.2317 48.9056 22.8348 49.6308 22.183 50.0522Z" fill="#FFA520"/>
<path d="M25.9514 43.2947V48.2146C25.9514 48.9056 26.3973 49.5181 27.054 49.724L31.8466 51.2284H31.8515C33.9831 51.2284 35.5169 51.0079 36.8351 50.5227L30.1657 48.9987C29.2886 48.7978 28.6711 48.0186 28.6711 47.117V43.0889C27.593 43.2506 26.6473 43.2947 25.9514 43.2947Z" fill="#FFA520"/>
<path d="M43.2203 12.7066C43.2203 14.505 42.4167 16.1319 41.1083 17.308C45.6705 17.8814 49.9044 17.504 51.4039 15.8722C51.9332 15.2989 51.4578 14.3531 50.6836 14.407C47.4934 14.6422 44.8375 13.8974 43.0929 11.4766C43.1762 11.8735 43.2203 12.2852 43.2203 12.7066Z" fill="#FFA520"/>
<path d="M8.98639 25.5995C8.98639 25.5995 7.60449 26.3492 7.60449 28.0399C7.60449 29.0248 8.20724 29.9559 8.71197 30.5635C9.0158 30.9262 9.0354 31.4456 8.78548 31.8572C8.57966 32.1954 8.44245 32.6707 8.61397 33.293C8.96679 34.5818 13.1223 36.7919 16.4986 37.0124C16.8074 37.0369 17.0475 37.2819 17.0573 37.5956C17.0671 37.7916 17.1112 38.017 17.2337 38.2424C17.8855 39.4822 25.9514 40.9915 32.2925 36.9193C38.6336 32.8373 36.0854 24.9967 36.0854 24.9967C36.0854 24.9967 36.9773 35.0425 27.7205 37.0075C18.4637 38.9775 18.5568 36.4587 18.5568 36.4587C18.5568 36.4587 17.8511 35.5129 16.5182 35.5129C15.1903 35.5129 8.84428 34.0183 10.8044 32.2836C10.8044 32.2836 12.0344 31.083 10.3291 29.7452C8.13863 28.0301 10.1037 25.2908 10.1037 25.2908C9.70185 25.4133 9.32942 25.5162 8.98639 25.5995Z" fill="#99DDFF"/>
<path d="M28.6712 43.0888C32.469 42.5057 37.977 40.472 40.5399 33.8664C43.828 25.3838 39.0845 18.5919 39.0845 18.5919V18.587C38.173 18.9742 37.1586 19.1898 36.0854 19.1898C36.0854 19.1898 47.5229 34.0869 29.8669 40.1486C29.8669 40.1486 16.8368 43.7455 7.60453 35.2336C7.60453 35.2336 6.59506 33.9252 5.36997 33.1852C4.15468 32.4502 2.46405 28.6573 5.23276 29.3139C5.23276 29.3139 -0.152738 23.4972 2.73357 23.2669V23.262C2.10633 22.9778 1.54769 22.9043 1.07235 23.262C-0.525165 24.4577 2.73848 28.2996 2.73848 28.2996C2.73848 28.2996 0.587216 26.898 0.420604 28.2996C0.307896 29.2453 1.7045 30.6713 2.62577 31.4946C3.057 31.8915 3.31182 32.4355 3.36572 33.0235C3.40002 33.391 3.50293 33.8125 3.75775 34.1408C4.07627 34.5377 4.54671 34.768 4.90934 34.9052C5.31117 35.0424 5.65909 35.2875 5.93841 35.606C6.97729 36.8164 9.58428 39.688 11.912 41.1042C14.4503 42.6527 19.581 43.1182 23.2318 43.2457C24.2952 43.2849 25.236 43.2947 25.9515 43.2947C26.6473 43.2947 27.5931 43.2506 28.6712 43.0888Z" fill="#99DDFF"/>
<path d="M36.1442 13.3535C36.1442 13.6034 36.2324 13.819 36.4088 13.9954C36.5852 14.1767 36.8008 14.2649 37.0507 14.2649C37.3007 14.2649 37.5163 14.1767 37.6927 13.9954C37.8691 13.819 37.9573 13.6034 37.9573 13.3535C37.9573 13.0986 37.8691 12.883 37.6927 12.7066C37.5163 12.5302 37.3007 12.442 37.0507 12.442C36.8008 12.442 36.5852 12.5302 36.4088 12.7066C36.2324 12.883 36.1442 13.0986 36.1442 13.3535Z" fill="#02006D"/>
<path d="M0.5872 27.3636C0.85182 27.2411 1.16054 27.2411 1.47417 27.2999C0.827318 26.3394 0.116765 25.0163 0.229474 23.9971C0.278478 23.5511 0.484292 23.1836 0.827318 22.9288C1.9152 22.1104 3.20399 22.9729 4.56629 23.8843C5.63947 24.6047 6.75185 25.3447 7.81033 25.3447C9.10893 25.3447 11.9854 24.2176 14.7737 23.1297C17.2827 22.1496 19.875 21.1352 21.7029 20.7628C24.1579 20.263 27.9165 20.3806 30.4402 20.5374C30.3716 18.543 29.8424 17.2199 29.367 16.0487C28.9358 14.9902 28.5291 13.9905 28.534 12.7066C28.534 8.89904 31.9201 5.80692 36.0854 5.80692C39.7215 5.80692 42.7597 8.16399 43.4752 11.2953C44.9943 13.3535 47.3415 14.2404 50.6542 13.9905C51.1834 13.9562 51.6784 14.2453 51.9136 14.7354C52.1439 15.2205 52.0655 15.7645 51.7078 16.1565C50.6101 17.3473 48.1844 17.9794 44.9355 17.9794C43.7937 17.9794 42.5539 17.901 41.2308 17.7442C40.7653 18.1411 40.2507 18.489 39.6823 18.7733C40.6427 20.4002 43.7937 26.6187 40.927 34.0183C38.3494 40.6583 32.8463 42.7752 29.0828 43.4319V47.117C29.0828 47.8275 29.563 48.4352 30.254 48.592L36.9234 50.1209C37.1047 50.1601 37.2321 50.3169 37.2468 50.4982C37.2566 50.6844 37.1488 50.851 36.9773 50.9147C36.154 51.2186 35.2524 51.4195 34.1939 51.5322L34.5859 51.6547C34.7623 51.7135 34.8799 51.8752 34.875 52.0565C34.875 52.2427 34.7525 52.4045 34.5761 52.4535C31.6898 53.2816 28.9701 53.6932 26.3778 53.6932C23.7757 53.6932 21.3059 53.2767 18.9342 52.4437C18.7822 52.3946 18.6744 52.2574 18.6597 52.1006C18.6401 51.9438 18.7136 51.787 18.8459 51.7037L21.9577 49.6995C22.4967 49.3564 22.8152 48.7635 22.8152 48.1264V43.6475C18.944 43.4858 14.1661 42.9713 11.6963 41.4619C9.31474 40.0065 6.65875 37.0712 5.62477 35.8755C5.39935 35.6158 5.10043 35.41 4.77211 35.2924C4.37518 35.1503 3.82144 34.8808 3.43921 34.3956C3.16969 34.0526 3.00308 33.6067 2.95407 33.0627C2.90997 32.5629 2.69436 32.117 2.34643 31.8082C0.690108 30.3185 -0.0939498 29.1228 0.00895748 28.2457C0.0775619 27.7115 0.361784 27.4714 0.5872 27.3636ZM51.1001 15.5929C51.2863 15.3871 51.1981 15.1617 51.1687 15.0931C51.1001 14.951 50.9384 14.804 50.713 14.8236C47.6356 15.049 45.3079 14.3629 43.632 12.7311C43.6271 14.3433 43.0096 15.8184 41.9903 16.9944C46.3664 17.4306 49.8946 16.9013 51.1001 15.5929ZM35.1249 50.5619L30.0727 49.4054C29.0044 49.1604 28.2546 48.2195 28.2546 47.117V43.5544C27.5147 43.6524 26.8678 43.6916 26.3631 43.7063V48.2146C26.3631 48.7292 26.6914 49.1751 27.1766 49.327L31.9054 50.8118C33.1697 50.8118 34.2135 50.7334 35.1249 50.5619ZM22.4036 50.4002L20.0269 51.9291C23.9913 53.1444 28.2497 53.1738 32.9737 52.0222L26.9315 50.1209C26.0985 49.8563 25.5398 49.0918 25.5398 48.2146V43.7063C24.9567 43.7063 24.3196 43.6965 23.6434 43.6769V48.1264C23.6434 49.0526 23.1779 49.9004 22.4036 50.4002ZM2.90017 31.1859C3.40001 31.6367 3.71363 32.2787 3.77734 32.9843C3.81164 33.3665 3.91454 33.6655 4.08606 33.8811C4.34578 34.2094 4.75251 34.4054 5.04653 34.5132C5.51206 34.6798 5.92859 34.9641 6.24712 35.3316C7.25659 36.4979 9.83908 39.3597 12.1276 40.7514C15.2736 42.6723 22.8397 42.8782 25.9515 42.8782C28.4507 42.8782 36.8548 42.2166 40.1527 33.7145C42.9655 26.4717 39.7166 20.4149 38.9178 19.0967C38.0407 19.425 37.0851 19.6063 36.0854 19.6063C35.8551 19.6063 35.6738 19.4201 35.6738 19.1898C35.6738 18.9644 35.8551 18.7782 36.0854 18.7782C39.795 18.7782 42.8087 16.0536 42.8087 12.7066C42.8087 9.35968 39.795 6.63508 36.0854 6.63508C32.3758 6.63508 29.3621 9.35968 29.3621 12.7066C29.3572 13.8288 29.7149 14.7109 30.1315 15.735C30.6411 16.9895 31.2096 18.4106 31.2684 20.5962C32.3121 20.6746 33.0129 20.7481 33.106 20.7579C33.3314 20.7824 33.498 20.9882 33.4735 21.2137C33.449 21.444 33.2481 21.6057 33.0178 21.5812C32.9443 21.5763 25.6476 20.8118 21.8695 21.5763C20.1102 21.934 17.5522 22.9337 15.0776 23.9039C12.8381 24.7811 10.6917 25.6191 9.14813 25.9866C8.94232 26.1091 8.02105 26.756 8.02105 28.0399C8.02105 28.8974 8.56989 29.7403 9.03052 30.294C9.44215 30.789 9.48625 31.5044 9.13833 32.0729C8.94232 32.4012 8.89821 32.7736 9.01092 33.1803C9.30004 34.2241 13.2742 36.3852 16.5232 36.6008C17.0426 36.6302 17.4542 37.0565 17.4738 37.5809C17.4787 37.7475 17.5228 37.9043 17.6013 38.0513C17.6503 38.1444 18.0129 38.4482 19.0861 38.7373C21.4431 39.3597 27.1864 39.7076 32.0671 36.5665C38.0603 32.7148 35.7914 25.4329 35.6934 25.1241C35.6248 24.9036 35.7424 24.6684 35.958 24.5998C36.1736 24.5263 36.4088 24.6488 36.4774 24.8644C36.5068 24.9477 39.0501 33.0627 32.5131 37.2672C29.2543 39.3646 25.6231 39.9771 22.776 39.9771C21.1491 39.9771 19.777 39.7762 18.8753 39.5361C18.1207 39.3401 17.1553 38.9824 16.8711 38.4384C16.7339 38.1836 16.6604 37.9043 16.6506 37.6152C16.6457 37.5123 16.5722 37.4338 16.4742 37.4289C13.1419 37.2084 8.6679 35.0278 8.21706 33.4058C8.04555 32.7736 8.11905 32.1611 8.43268 31.6416C8.59929 31.3721 8.58459 31.0536 8.39838 30.8282C7.84953 30.1666 7.19289 29.1473 7.19289 28.0399C7.19289 27.2362 7.46241 26.6237 7.78093 26.1728C6.48233 26.163 5.22294 25.3202 4.11056 24.5753C2.76296 23.6736 1.9005 23.1591 1.32225 23.5952C1.16054 23.7128 1.07724 23.8696 1.05273 24.0902C0.925326 25.2368 2.45424 27.3195 3.05698 28.0301C3.18929 28.182 3.18929 28.4172 3.05208 28.5691C2.91977 28.7259 2.68946 28.7602 2.51794 28.6475C2.04261 28.3388 1.22425 27.9811 0.940026 28.1183C0.920426 28.1281 0.85672 28.1575 0.832218 28.3486C0.778314 28.7749 1.29775 29.7452 2.90017 31.1859Z" fill="#02006D"/>
<path d="M30.1461 8.57073C30.1461 8.57073 31.6358 9.99673 35.9922 9.99673C40.2507 9.99673 41.8433 8.57073 41.8433 8.57073V3.50375H30.1461V8.57073Z" fill="#1D2740"/>
<path d="M36.0216 10.1976C40.3046 10.1976 41.9217 8.7814 41.9903 8.72259L42.0442 8.66379V3.3028H29.9452V8.65889L30.0187 8.71769C30.0824 8.7765 31.6309 10.1976 36.0216 10.1976ZM41.6375 8.47268C41.3287 8.72749 39.6332 9.79087 35.9922 9.79087C32.268 9.79087 30.6606 8.72749 30.3519 8.47758V3.70953H41.6375V8.47268Z" fill="#02006D"/>
<path d="M32.1994 5.33649V10.673L31.8416 10.1976L31.479 10.5064V5.13068" fill="#FFA520"/>
<path d="M32.4053 11.2855V5.33649H31.9937V10.0653L31.8711 9.90363L31.6849 10.0604V5.13068H31.2782V10.9474L31.8074 10.4966L32.4053 11.2855Z" fill="#02006D"/>
<path d="M35.9923 6.72326L45.2246 3.46942L35.9923 0.215576L26.7649 3.46942L35.9923 6.72326Z" fill="#122557"/>
<path d="M35.9923 6.93891L45.8371 3.46946L35.9923 0L26.1523 3.46946L35.9923 6.93891ZM44.612 3.46946L35.9923 6.50768L27.3774 3.46946L35.9923 0.431232L44.612 3.46946Z" fill="#02006D"/>
</svg>
