<svg width="25" height="25" viewBox="0 0 25 25" fill="none" xmlns="http://www.w3.org/2000/svg">
<path d="M23.4917 13.7604L21.6667 7.20419C21.078 5.09163 19.8002 3.2364 18.0363 1.93324C16.2725 0.630077 14.1237 -0.0462624 11.9314 0.011675C9.73912 0.0696123 7.62907 0.858503 5.9365 2.25301C4.24392 3.64752 3.0659 5.56765 2.5896 7.70835L1.17919 14.0511C0.993117 14.8885 0.997468 15.757 1.19192 16.5924C1.38637 17.4279 1.76595 18.2091 2.30266 18.8783C2.83936 19.5475 3.51949 20.0876 4.29284 20.4588C5.0662 20.83 5.91303 21.0228 6.77085 21.0229H7.18752C7.51901 22.1693 8.21402 23.1769 9.16786 23.894C10.1217 24.6111 11.2827 24.9989 12.4761 24.9989C13.6694 24.9989 14.8304 24.6111 15.7843 23.894C16.7381 23.1769 17.4331 22.1693 17.7646 21.0229H17.9656C18.8489 21.023 19.7202 20.8189 20.5115 20.4265C21.3029 20.0341 21.9927 19.4641 22.5273 18.7609C23.0618 18.0578 23.4265 17.2405 23.5929 16.3731C23.7593 15.5056 23.7229 14.6115 23.4865 13.7604H23.4917ZM20.0448 16.8688C19.803 17.1898 19.4896 17.45 19.1296 17.6287C18.7695 17.8074 18.3728 17.8996 17.9709 17.8979H6.77085C6.38096 17.8979 5.99607 17.8102 5.64457 17.6415C5.29307 17.4728 4.98394 17.2273 4.73999 16.9232C4.49604 16.619 4.32349 16.264 4.23508 15.8843C4.14667 15.5045 4.14466 15.1098 4.22919 14.7292L5.6396 8.37502C5.96348 6.91259 6.76725 5.60054 7.92298 4.64771C9.07871 3.69489 10.52 3.15607 12.0173 3.11702C13.5147 3.07797 14.9821 3.54093 16.1859 4.43222C17.3897 5.3235 18.2608 6.59188 18.6604 8.03544L20.4813 14.5917C20.5911 14.979 20.6089 15.3866 20.5331 15.782C20.4573 16.1774 20.2901 16.5495 20.0448 16.8688V16.8688Z" fill="#26124E"/>
</svg>
