<svg width="24" height="24" viewBox="0 0 24 24" fill="none" xmlns="http://www.w3.org/2000/svg">
<g clip-path="url(#clip0_37_40)">
<path d="M22.2 2.16298C21.6378 1.6929 20.9791 1.35237 20.2705 1.16554C19.5619 0.978715 18.8209 0.950185 18.1 1.08198L14.278 1.77598C13.3956 1.93802 12.5933 2.392 12 3.06498C11.4052 2.39084 10.6006 1.93675 9.716 1.77598L5.9 1.08198C5.17916 0.95007 4.43813 0.978226 3.72938 1.16445C3.02062 1.35068 2.36147 1.69042 1.79857 2.15963C1.23567 2.62884 0.782786 3.21605 0.471982 3.87968C0.161178 4.54332 4.88125e-05 5.26716 0 5.99998L0 16.793C5.74559e-05 17.9638 0.410977 19.0974 1.16113 19.9963C1.91129 20.8952 2.95311 21.5024 4.105 21.712L10.391 22.855C11.455 23.0483 12.545 23.0483 13.609 22.855L19.9 21.712C21.051 21.5014 22.0916 20.8938 22.8408 19.9949C23.5899 19.0961 24.0002 17.9631 24 16.793V5.99998C24.0005 5.26742 23.8394 4.54377 23.5283 3.88057C23.2171 3.21736 22.7636 2.63091 22.2 2.16298ZM11 20.928C10.916 20.916 10.832 20.902 10.748 20.887L4.463 19.745C3.77176 19.6192 3.14659 19.2548 2.69649 18.7154C2.24638 18.1759 1.99989 17.4956 2 16.793V5.99998C2 5.20433 2.31607 4.44127 2.87868 3.87866C3.44129 3.31605 4.20435 2.99998 5 2.99998C5.18109 3.00041 5.36179 3.0168 5.54 3.04898L9.36 3.74898C9.81961 3.83308 10.2353 4.07545 10.5348 4.43402C10.8344 4.79259 10.999 5.24473 11 5.71198V20.928ZM22 16.793C22.0001 17.4956 21.7536 18.1759 21.3035 18.7154C20.8534 19.2548 20.2282 19.6192 19.537 19.745L13.252 20.887C13.168 20.902 13.084 20.916 13 20.928V5.71198C12.9999 5.24359 13.1643 4.79003 13.4643 4.43038C13.7644 4.07074 14.1812 3.82782 14.642 3.74398L18.463 3.04398C18.8957 2.96525 19.3405 2.98263 19.7657 3.09489C20.191 3.20715 20.5863 3.41154 20.9238 3.69358C21.2613 3.97563 21.5326 4.32843 21.7186 4.727C21.9046 5.12557 22.0007 5.56015 22 5.99998V16.793Z" fill="#26124E"/>
</g>
<defs>
<clipPath id="clip0_37_40">
<rect width="24" height="24" fill="#26124E"/>
</clipPath>
</defs>
</svg>
