<svg width="32" height="32" viewBox="0 0 32 32" fill="none" xmlns="http://www.w3.org/2000/svg">
<g clip-path="url(#clip0_39_44)">
<path d="M24.6668 12.6667C25.1972 12.6667 25.7059 12.4559 26.081 12.0809C26.4561 11.7058 26.6668 11.1971 26.6668 10.6667V9.75065C26.6643 7.87262 25.9172 6.07221 24.5892 4.74423C23.2612 3.41626 21.4608 2.66912 19.5828 2.66665H18.0001V1.99998C18.0001 1.46955 17.7894 0.960844 17.4143 0.585771C17.0393 0.210698 16.5306 -1.52588e-05 16.0001 -1.52588e-05C15.4697 -1.52588e-05 14.961 0.210698 14.5859 0.585771C14.2108 0.960844 14.0001 1.46955 14.0001 1.99998V2.66665H12.4174C10.7168 2.66412 9.07191 3.27351 7.78339 4.3835C6.49487 5.49349 5.64868 7.02999 5.3994 8.71232C5.15012 10.3947 5.5144 12.1105 6.42568 13.5465C7.33697 14.9824 8.73443 16.0426 10.3628 16.5333L14.0001 17.528V25.3333H12.4174C11.5998 25.3323 10.816 25.007 10.2379 24.4289C9.65977 23.8507 9.33451 23.0669 9.33345 22.2493V21.3333C9.33345 20.8029 9.12274 20.2942 8.74766 19.9191C8.37259 19.544 7.86388 19.3333 7.33345 19.3333C6.80302 19.3333 6.29431 19.544 5.91924 19.9191C5.54416 20.2942 5.33345 20.8029 5.33345 21.3333V22.2493C5.33592 24.1274 6.08306 25.9278 7.41103 27.2557C8.73901 28.5837 10.5394 29.3308 12.4174 29.3333H14.0001V30C14.0001 30.5304 14.2108 31.0391 14.5859 31.4142C14.961 31.7893 15.4697 32 16.0001 32C16.5306 32 17.0393 31.7893 17.4143 31.4142C17.7894 31.0391 18.0001 30.5304 18.0001 30V29.3333H19.5828C21.2835 29.3359 22.9283 28.7265 24.2168 27.6165C25.5054 26.5065 26.3516 24.97 26.6008 23.2876C26.8501 21.6053 26.4858 19.8895 25.5746 18.4535C24.6633 17.0176 23.2658 15.9574 21.6375 15.4667L18.0001 14.4747V6.66665H19.5828C20.4004 6.66771 21.1842 6.99297 21.7623 7.5711C22.3405 8.14924 22.6657 8.93305 22.6668 9.75065V10.6667C22.6668 11.1971 22.8775 11.7058 23.2526 12.0809C23.6276 12.4559 24.1364 12.6667 24.6668 12.6667ZM20.5095 19.3053C21.2128 19.527 21.8136 19.9933 22.2028 20.6197C22.592 21.2461 22.744 21.9913 22.6311 22.7201C22.5183 23.4489 22.1481 24.1132 21.5877 24.5926C21.0272 25.072 20.3136 25.3348 19.5761 25.3333H18.0001V18.62L20.5095 19.3053ZM14.0001 13.38L11.4908 12.6947C10.7879 12.4732 10.1876 12.0074 9.79834 11.3817C9.40909 10.7559 9.25666 10.0116 9.36863 9.28319C9.4806 8.55483 9.84957 7.89059 10.4088 7.41067C10.968 6.93074 11.6805 6.66682 12.4174 6.66665H14.0001V13.38Z" fill="#26124E"/>
</g>
<defs>
<clipPath id="clip0_39_44">
<rect width="32" height="32" fill="white"/>
</clipPath>
</defs>
</svg>
