<svg width="24" height="24" viewBox="0 0 24 24" fill="none" xmlns="http://www.w3.org/2000/svg">
<path d="M8.85081 17.7C10.6082 19.4574 13.4574 19.4574 15.2148 17.7L15.2148 17.7L18.4269 14.488C19.0227 13.9125 19.0392 12.9629 18.4637 12.367C17.8882 11.7711 16.9386 11.7546 16.3427 12.3301C16.3302 12.3422 16.3179 12.3545 16.3059 12.367L13.5228 15.149L13.4998 1.5C13.4998 0.671578 12.8282 0 11.9998 0C11.1714 0 10.4998 0.671578 10.4998 1.5L10.5208 15.127L7.75984 12.366C7.16396 11.7905 6.21437 11.807 5.63884 12.4028C5.07742 12.9841 5.07742 13.9057 5.63884 14.487L8.85081 17.7Z" fill="#26124E"/>
<path d="M22.5 14.5C21.6716 14.5 21 15.1716 21 16V20.591C20.9994 20.8166 20.8167 20.9995 20.591 21H3.40898C3.18333 20.9994 3.00052 20.8166 3 20.591V16C3 15.1716 2.32842 14.5 1.5 14.5C0.671578 14.5 0 15.1716 0 16V20.591C0.00220312 22.4728 1.52719 23.9978 3.40898 24H20.591C22.4728 23.9978 23.9977 22.4728 24 20.591V16C24 15.1716 23.3284 14.5 22.5 14.5Z" fill="#26124E"/>
</svg>
