<svg width="525" height="525" viewBox="0 0 525 525" fill="none" xmlns="http://www.w3.org/2000/svg">
<rect width="525" height="525" rx="145" fill="#B2E5FF" fill-opacity="0.22"/>
<path d="M226.496 135.452C197.23 140.191 174.177 162.962 168.733 192.446C167.196 200.936 167.773 214.493 169.95 223.18C172.768 234.039 179.236 246.61 186.152 254.573C187.817 256.416 188.969 258.061 188.777 258.324C188.585 258.522 186.216 259.641 183.526 260.825C152.083 274.909 126.98 305.249 117.567 340.59C113.724 355.003 111.931 372.97 113.66 379.222C114.877 383.368 118.335 387.054 122.177 388.107C123.778 388.567 139.468 388.831 168.221 388.831H211.767L215.289 386.988C218.171 385.54 219.067 384.619 220.54 381.657C223.358 375.865 222.654 369.679 218.619 365.072C214.649 360.531 214.393 360.531 175.713 360.531H141.581L141.901 359.017C143.886 349.54 145.167 344.934 147.344 339.208C154.581 320.254 169.117 302.419 186.216 291.494C201.649 281.688 215.417 277.542 236.678 276.357C249.678 275.633 257.106 273.856 266.2 269.447C289.574 258.061 304.174 235.751 305.327 209.426C306.16 191.919 301.293 176.256 290.726 161.777C281.825 149.668 268.121 140.454 253.328 136.703C247.436 135.189 232.58 134.465 226.496 135.452ZM245.964 165.463C253.456 167.24 259.155 170.596 264.919 176.519C270.746 182.508 273.948 188.366 275.805 196.329C277.214 202.515 276.766 213.703 274.845 219.692C266.712 245.754 235.781 256.679 213.176 241.476C197.551 231.012 191.147 210.939 197.358 191.854C201.457 179.349 212.215 169.148 224.959 165.726C230.722 164.212 240.2 164.015 245.964 165.463Z" fill="url(#paint0_linear_72_50)"/>
<path d="M361.099 221.086C359.307 221.546 349.257 231.61 313.859 267.853C282.238 300.281 268.412 314.884 267.387 316.989C266.555 318.633 261.946 332.183 257.146 347.115C247.608 376.649 247.608 376.386 250.552 381.779C252.409 385.2 256.249 387.831 260.73 388.817L264.379 389.607L289.215 381.121C302.849 376.517 315.78 371.913 317.892 370.926C321.349 369.282 326.149 364.546 366.924 322.514C410.196 277.851 412.18 275.746 412.884 272.655C413.716 269.103 413.396 266.538 411.668 263.051C411.028 261.802 401.874 252.001 391.376 241.213C375.502 225.032 371.853 221.612 369.741 221.02C366.732 220.165 364.172 220.165 361.099 221.086ZM373.261 262.065L380.623 269.629L343.88 307.385L307.202 345.076L296.512 348.496C290.687 350.338 285.694 351.851 285.502 351.851C285.246 351.851 286.591 346.917 288.447 340.932L291.775 330.013L328.518 292.256C348.745 271.471 365.388 254.5 365.58 254.5C365.772 254.5 369.229 257.921 373.261 262.065Z" fill="url(#paint1_linear_72_50)"/>
<defs>
<linearGradient id="paint0_linear_72_50" x1="139.519" y1="348.122" x2="282.739" y2="346.819" gradientUnits="userSpaceOnUse">
<stop stop-color="#48A1D3"/>
<stop offset="1" stop-color="#65C8D2"/>
</linearGradient>
<linearGradient id="paint1_linear_72_50" x1="271.496" y1="362.468" x2="393.928" y2="361.04" gradientUnits="userSpaceOnUse">
<stop stop-color="#48A1D3"/>
<stop offset="1" stop-color="#65C8D2"/>
</linearGradient>
</defs>
</svg>
