<svg width="42" height="29" viewBox="0 0 42 29" fill="none" xmlns="http://www.w3.org/2000/svg">
<g clip-path="url(#clip0_39_364)">
<path d="M32.1207 1.20813H9.62295C7.09939 1.21005 4.67998 1.91085 2.89555 3.15677C1.11112 4.40269 0.107424 6.09197 0.104675 7.85396L0.104675 21.1456C0.107424 22.9076 1.11112 24.5969 2.89555 25.8428C4.67998 27.0887 7.09939 27.7895 9.62295 27.7915H32.1207C34.6443 27.7895 37.0637 27.0887 38.8481 25.8428C40.6325 24.5969 41.6362 22.9076 41.639 21.1456V7.85396C41.6362 6.09197 40.6325 4.40269 38.8481 3.15677C37.0637 1.91085 34.6443 1.21005 32.1207 1.20813ZM32.1207 4.83313C33.1702 4.83557 34.182 5.10688 34.9641 5.59559L23.7152 13.4498C22.9512 13.9593 21.9353 14.2436 20.8787 14.2436C19.8222 14.2436 18.8063 13.9593 18.0423 13.4498L6.79343 5.59559C7.57193 5.10908 8.57819 4.83793 9.62295 4.83313H32.1207ZM32.1207 24.1665H9.62295C8.47549 24.1665 7.37504 23.8482 6.56366 23.2817C5.75229 22.7152 5.29646 21.9468 5.29646 21.1456V9.68701L14.3631 16.0175C15.2176 16.6143 16.2321 17.0878 17.3487 17.4109C18.4654 17.7339 19.6623 17.9002 20.871 17.9002C22.0797 17.9002 23.2765 17.7339 24.3932 17.4109C25.5098 17.0878 26.5244 16.6143 27.3789 16.0175L36.4472 9.68701V21.1456C36.4472 21.9468 35.9914 22.7152 35.18 23.2817C34.3686 23.8482 33.2682 24.1665 32.1207 24.1665Z" fill="white"/>
</g>
<defs>
<clipPath id="clip0_39_364">
<rect width="41.5343" height="29" fill="white" transform="translate(0.104675)"/>
</clipPath>
</defs>
</svg>
