<svg width="39" height="39" viewBox="0 0 39 39" fill="none" xmlns="http://www.w3.org/2000/svg">
<path d="M27.625 26.3699C31.4119 27.2622 34.125 29.6698 34.125 32.5" stroke="#26124E" stroke-opacity="0.45" stroke-width="4" stroke-linecap="round" stroke-linejoin="round"/>
<path d="M4.875 32.5C4.875 28.9101 9.24022 26 14.625 26C20.0098 26 24.375 28.9101 24.375 32.5" stroke="#26124E" stroke-width="4" stroke-linecap="round" stroke-linejoin="round"/>
<path d="M24.375 21.125C27.9649 21.125 30.875 18.2149 30.875 14.625C30.875 11.0351 27.9649 8.125 24.375 8.125" stroke="#26124E" stroke-opacity="0.45" stroke-width="4" stroke-linecap="round" stroke-linejoin="round"/>
<path d="M14.625 21.125C18.2149 21.125 21.125 18.2149 21.125 14.625C21.125 11.0351 18.2149 8.125 14.625 8.125C11.0351 8.125 8.125 11.0351 8.125 14.625C8.125 18.2149 11.0351 21.125 14.625 21.125Z" stroke="#26124E" stroke-width="4" stroke-linecap="round" stroke-linejoin="round"/>
</svg>
