<svg width="36" height="33" viewBox="0 0 36 33" fill="none" xmlns="http://www.w3.org/2000/svg">
<g clip-path="url(#clip0_39_342)">
<path d="M25.7308 33C13.7978 33.3149 -7.3269 13.4571 2.8313 2.66475C2.86791 2.63175 4.43037 1.353 4.43037 1.353C5.41099 0.501798 6.70038 0.0337411 8.03578 0.0442159C9.37117 0.0546907 10.6521 0.542909 11.6174 1.40938L14.7687 4.59663C15.6969 5.50753 16.2103 6.72244 16.1996 7.98314C16.1889 9.24383 15.6551 10.4509 14.7116 11.3479L14.1434 11.8896C15.8355 15.4081 18.8292 18.2309 22.5693 19.8344L23.1711 19.2844C24.1473 18.4114 25.4437 17.9244 26.7917 17.9244C28.1398 17.9244 29.4362 18.4114 30.4123 19.2844L33.6881 22.1375C34.6584 23.0275 35.2153 24.2412 35.2378 25.5147C35.2603 26.7882 34.7465 28.0185 33.8082 28.9383C33.8082 28.9383 32.4463 30.404 32.4112 30.4384C31.5337 31.2593 30.4913 31.9084 29.3445 32.3482C28.1978 32.7879 26.9695 33.0095 25.7308 33ZM5.88886 5.6375C-1.22642 13.9123 21.5486 34.0629 29.2526 27.5688C29.2526 27.5688 30.6056 26.1126 30.6422 26.0796C30.7795 25.9507 30.8566 25.7759 30.8566 25.5936C30.8566 25.4113 30.7795 25.2364 30.6422 25.1075L27.365 22.2558C26.9257 21.912 26.6782 21.9079 26.2711 22.2008L24.6076 23.738C24.3076 24.0152 23.929 24.2056 23.517 24.2865C23.105 24.3674 22.6769 24.3355 22.2837 24.1945C19.3618 23.1735 16.7078 21.5746 14.5016 19.5061C12.2955 17.4377 10.5887 14.948 9.49702 12.2059C9.33813 11.8337 9.29825 11.426 9.38225 11.0328C9.46626 10.6397 9.67051 10.278 9.97 9.99213L11.5925 8.44388C11.6664 8.38225 11.7258 8.30681 11.7668 8.2224C11.8079 8.13799 11.8298 8.04646 11.831 7.95367C11.8322 7.86088 11.8128 7.76886 11.774 7.68351C11.7352 7.59816 11.6779 7.52135 11.6057 7.458L8.45147 4.27075C8.3119 4.16123 8.13304 4.10593 7.95148 4.11615C7.76992 4.12637 7.59938 4.20135 7.47475 4.32575C7.43961 4.36013 5.88886 5.6375 5.88886 5.6375ZM35.2491 13.0625C35.2448 9.59934 33.7778 6.27917 31.1698 3.83034C28.5619 1.38151 25.026 0.00400303 21.3378 0C20.7552 0 20.1965 0.217298 19.7846 0.604092C19.3726 0.990886 19.1412 1.51549 19.1412 2.0625C19.1412 2.60951 19.3726 3.13411 19.7846 3.52091C20.1965 3.9077 20.7552 4.125 21.3378 4.125C23.8612 4.12791 26.2804 5.07047 28.0648 6.74595C29.8491 8.42142 30.8529 10.693 30.856 13.0625C30.856 13.6095 31.0875 14.1341 31.4994 14.5209C31.9113 14.9077 32.47 15.125 33.0526 15.125C33.6351 15.125 34.1938 14.9077 34.6057 14.5209C35.0177 14.1341 35.2491 13.6095 35.2491 13.0625ZM27.9273 13.0625C27.9254 11.422 27.2305 9.84927 25.9951 8.68929C24.7598 7.5293 23.0848 6.87682 21.3378 6.875C20.7552 6.875 20.1965 7.0923 19.7846 7.47909C19.3726 7.86589 19.1412 8.39049 19.1412 8.9375C19.1412 9.48451 19.3726 10.0091 19.7846 10.3959C20.1965 10.7827 20.7552 11 21.3378 11C21.9203 11 22.479 11.2173 22.8909 11.6041C23.3029 11.9909 23.5343 12.5155 23.5343 13.0625C23.5343 13.6095 23.7657 14.1341 24.1776 14.5209C24.5896 14.9077 25.1482 15.125 25.7308 15.125C26.3134 15.125 26.8721 14.9077 27.284 14.5209C27.6959 14.1341 27.9273 13.6095 27.9273 13.0625Z" fill="white"/>
</g>
<defs>
<clipPath id="clip0_39_342">
<rect width="35.1444" height="33" fill="white" transform="translate(0.104675)"/>
</clipPath>
</defs>
</svg>
