<svg width="24" height="24" viewBox="0 0 24 24" fill="none" xmlns="http://www.w3.org/2000/svg">
<g clip-path="url(#clip0_39_38)">
<path d="M17 23.9999C15.6156 23.9999 14.2622 23.5894 13.111 22.8202C11.9599 22.0511 11.0627 20.9578 10.5329 19.6787C10.0031 18.3996 9.86444 16.9922 10.1345 15.6343C10.4046 14.2764 11.0713 13.0292 12.0503 12.0502C13.0293 11.0712 14.2765 10.4045 15.6344 10.1344C16.9923 9.86435 18.3997 10.003 19.6788 10.5328C20.9579 11.0626 22.0512 11.9598 22.8203 13.111C23.5895 14.2621 24 15.6155 24 16.9999C23.9979 18.8558 23.2597 20.6351 21.9474 21.9474C20.6352 23.2596 18.8559 23.9978 17 23.9999ZM17 11.9999C16.0111 11.9999 15.0444 12.2932 14.2222 12.8426C13.3999 13.392 12.7591 14.1729 12.3806 15.0865C12.0022 16.0002 11.9032 17.0055 12.0961 17.9754C12.289 18.9453 12.7652 19.8362 13.4645 20.5355C14.1638 21.2347 15.0547 21.7109 16.0246 21.9039C16.9945 22.0968 17.9998 21.9978 18.9135 21.6193C19.8271 21.2409 20.608 20.6 21.1574 19.7778C21.7068 18.9555 22 17.9888 22 16.9999C21.9985 15.6743 21.4712 14.4035 20.5338 13.4662C19.5965 12.5288 18.3256 12.0015 17 11.9999ZM18.707 18.7069C18.8945 18.5194 18.9998 18.2651 18.9998 17.9999C18.9998 17.7348 18.8945 17.4805 18.707 17.2929L18 16.5859V14.9999C18 14.7347 17.8947 14.4804 17.7071 14.2928C17.5196 14.1053 17.2653 13.9999 17 13.9999C16.7348 13.9999 16.4805 14.1053 16.2929 14.2928C16.1054 14.4804 16 14.7347 16 14.9999V16.9999C16.0001 17.2651 16.1055 17.5195 16.293 17.7069L17.293 18.7069C17.4806 18.8944 17.7349 18.9997 18 18.9997C18.2652 18.9997 18.5195 18.8944 18.707 18.7069ZM2.00004 22.9999C2.00256 21.1625 2.61472 19.3779 3.74054 17.9258C4.86636 16.4737 6.4422 15.4362 8.22104 14.9759C8.34921 14.9469 8.47041 14.8929 8.57771 14.8171C8.68502 14.7412 8.77634 14.645 8.84645 14.5338C8.91655 14.4227 8.96408 14.2988 8.98632 14.1693C9.00855 14.0397 9.00506 13.9071 8.97604 13.7789C8.94702 13.6508 8.89303 13.5296 8.81717 13.4223C8.74131 13.315 8.64506 13.2236 8.5339 13.1535C8.42275 13.0834 8.29888 13.0359 8.16936 13.0137C8.03984 12.9914 7.90721 12.9949 7.77904 13.0239C5.55008 13.5709 3.5703 14.8526 2.15901 16.6625C0.747718 18.4724 -0.0128247 20.7049 3.84534e-05 22.9999C3.84534e-05 23.2652 0.105395 23.5195 0.292932 23.7071C0.480468 23.8946 0.734822 23.9999 1.00004 23.9999C1.26525 23.9999 1.51961 23.8946 1.70715 23.7071C1.89468 23.5195 2.00004 23.2652 2.00004 22.9999ZM8.47404 10.9999C7.38624 10.9999 6.32287 10.6774 5.4184 10.073C4.51393 9.46868 3.80898 8.60969 3.3927 7.6047C2.97642 6.59971 2.8675 5.49384 3.07972 4.42695C3.29194 3.36005 3.81576 2.38004 4.58495 1.61085C5.35414 0.841665 6.33415 0.317841 7.40104 0.105622C8.46794 -0.106596 9.5738 0.00232205 10.5788 0.418604C11.5838 0.834886 12.4428 1.53984 13.0471 2.44431C13.6515 3.34878 13.974 4.41214 13.974 5.49994C13.9725 6.95815 13.3925 8.35617 12.3614 9.38728C11.3303 10.4184 9.93224 10.9984 8.47404 10.9999ZM8.47404 1.99994C7.7818 1.99994 7.10511 2.20521 6.52954 2.5898C5.95397 2.97438 5.50537 3.52101 5.24046 4.16055C4.97555 4.80009 4.90624 5.50382 5.04129 6.18276C5.17634 6.86169 5.50968 7.48533 5.99917 7.97482C6.48865 8.4643 7.11229 8.79764 7.79122 8.93269C8.47016 9.06774 9.17389 8.99843 9.81343 8.73352C10.453 8.46861 10.9996 8.02001 11.3842 7.44444C11.7688 6.86887 11.974 6.19218 11.974 5.49994C11.974 4.57168 11.6053 3.68145 10.9489 3.02507C10.2925 2.36869 9.4023 1.99994 8.47404 1.99994Z" fill="white"/>
</g>
<defs>
<clipPath id="clip0_39_38">
<rect width="24" height="24" fill="white"/>
</clipPath>
</defs>
</svg>
