<svg width="30" height="30" viewBox="0 0 30 30" fill="none" xmlns="http://www.w3.org/2000/svg">
<g clip-path="url(#clip0_39_82)">
<path d="M10.5924 -7.62939e-06C9.23266 -7.62939e-06 7.90345 0.403204 6.77286 1.15864C5.64227 1.91407 4.76109 2.9878 4.24074 4.24404C3.72039 5.50029 3.58424 6.88262 3.84951 8.21624C4.11478 9.54986 4.76956 10.7749 5.73105 11.7364C6.69253 12.6978 7.91754 13.3526 9.25116 13.6179C10.5848 13.8832 11.9671 13.747 13.2233 13.2267C14.4796 12.7063 15.5533 11.8251 16.3087 10.6945C17.0642 9.56395 17.4674 8.23474 17.4674 6.87499C17.4654 5.05224 16.7404 3.30471 15.4516 2.01583C14.1627 0.726943 12.4152 0.00197758 10.5924 -7.62939e-06V-7.62939e-06ZM10.5924 9.99999C9.97434 9.99999 9.37015 9.81671 8.85625 9.47333C8.34234 9.12996 7.94181 8.6419 7.70528 8.07088C7.46876 7.49986 7.40687 6.87153 7.52745 6.26534C7.64803 5.65914 7.94566 5.10232 8.3827 4.66528C8.81973 4.22824 9.37656 3.93062 9.98275 3.81004C10.5889 3.68946 11.2173 3.75134 11.7883 3.98787C12.3593 4.22439 12.8474 4.62493 13.1907 5.13884C13.5341 5.65274 13.7174 6.25693 13.7174 6.87499C13.7174 7.28537 13.6366 7.69174 13.4795 8.07088C13.3225 8.45002 13.0923 8.79452 12.8021 9.0847C12.5119 9.37488 12.1674 9.60507 11.7883 9.76212C11.4091 9.91916 11.0028 9.99999 10.5924 9.99999Z" fill="#26124E"/>
<path d="M11.215 17.9389C11.3101 18.4269 11.2074 18.9327 10.9296 19.345C10.6519 19.7573 10.2217 20.0424 9.73375 20.1377C8.04851 20.4699 6.53077 21.3767 5.43952 22.7032C4.34827 24.0297 3.75113 25.6937 3.75 27.4114V28.1252C3.75 28.6225 3.55246 29.0994 3.20083 29.451C2.84919 29.8026 2.37228 30.0002 1.875 30.0002C1.37772 30.0002 0.900806 29.8026 0.549175 29.451C0.197544 29.0994 0 28.6225 0 28.1252L0 27.4114C0.00243928 24.824 0.902572 22.3176 2.54683 20.3197C4.19109 18.3219 6.47759 16.9565 9.01625 16.4564C9.25797 16.4094 9.50658 16.4104 9.7479 16.4595C9.98922 16.5085 10.2185 16.6046 10.4227 16.7423C10.6269 16.8799 10.8019 17.0565 10.9379 17.2618C11.0738 17.4671 11.168 17.6972 11.215 17.9389Z" fill="#26124E"/>
<path d="M21.2498 12.4992C19.5192 12.4992 17.8275 13.0124 16.3885 13.9739C14.9496 14.9353 13.8281 16.3019 13.1658 17.9007C12.5035 19.4996 12.3303 21.2589 12.6679 22.9563C13.0055 24.6536 13.8389 26.2127 15.0626 27.4364C16.2863 28.6601 17.8454 29.4935 19.5427 29.8311C21.2401 30.1687 22.9994 29.9954 24.5982 29.3332C26.1971 28.6709 27.5637 27.5494 28.5251 26.1105C29.4866 24.6715 29.9998 22.9798 29.9998 21.2492C29.9998 18.9286 29.0779 16.703 27.4369 15.062C25.796 13.4211 23.5704 12.4992 21.2498 12.4992ZM25.3048 25.3055C25.1617 25.5562 24.9628 25.7705 24.7234 25.9317C24.4839 26.0929 24.2105 26.1967 23.9244 26.2349C23.6383 26.2731 23.3473 26.2448 23.0739 26.1521C22.8006 26.0594 22.5523 25.9048 22.3485 25.7005L19.2985 22.6505C19.1244 22.4763 18.9864 22.2695 18.8922 22.0419C18.7981 21.8144 18.7496 21.5705 18.7498 21.3242V16.9492C18.7498 16.4519 18.9473 15.975 19.2989 15.6234C19.6506 15.2718 20.1275 15.0742 20.6248 15.0742C21.122 15.0742 21.599 15.2718 21.9506 15.6234C22.3022 15.975 22.4998 16.4519 22.4998 16.9492V20.5467L24.9223 22.9692C25.2335 23.2628 25.4395 23.6505 25.5086 24.0727C25.5777 24.4948 25.5061 24.928 25.3048 25.3055Z" fill="#26124E"/>
</g>
<defs>
<clipPath id="clip0_39_82">
<rect width="30" height="30" fill="white"/>
</clipPath>
</defs>
</svg>
