<svg width="525" height="525" viewBox="0 0 525 525" fill="none" xmlns="http://www.w3.org/2000/svg">
<rect width="525" height="525" rx="145" fill="url(#paint0_linear_204_81)"/>
<g clip-path="url(#clip0_204_81)">
<path d="M406.515 371.068L348.451 312.979C391.897 254.919 380.051 172.632 321.991 129.185C263.931 85.7386 181.644 97.585 138.197 155.645C94.7509 213.704 106.597 295.992 164.657 339.438C211.295 374.338 275.352 374.338 321.991 339.438L380.08 397.527C387.38 404.827 399.215 404.827 406.514 397.527C413.814 390.227 413.814 378.392 406.514 371.093L406.515 371.068ZM243.808 328.227C192.207 328.227 150.377 286.396 150.377 234.796C150.377 183.195 192.207 141.365 243.808 141.365C295.409 141.365 337.239 183.195 337.239 234.796C337.184 286.373 295.386 328.172 243.808 328.227Z" fill="white"/>
</g>
<defs>
<linearGradient id="paint0_linear_204_81" x1="72.3558" y1="84.1976" x2="463.096" y2="88.886" gradientUnits="userSpaceOnUse">
<stop stop-color="#48A1D3"/>
<stop offset="1" stop-color="#65C8D2"/>
</linearGradient>
<clipPath id="clip0_204_81">
<rect width="300" height="300" fill="white" transform="translate(112 103)"/>
</clipPath>
</defs>
</svg>
