<svg width="24" height="24" viewBox="0 0 24 24" fill="none" xmlns="http://www.w3.org/2000/svg">
<g clip-path="url(#clip0_120_63)">
<path d="M4.49994 7.00019C4.04012 7.00148 3.5846 6.91156 3.15977 6.73561C2.73493 6.55967 2.34921 6.30121 2.02494 5.97519L0.499942 4.62019C0.2029 4.35497 0.0233803 3.98262 0.000875914 3.58504C-0.0102671 3.38818 0.0174735 3.19106 0.0825138 3.00492C0.147554 2.81878 0.24862 2.64727 0.379942 2.50019C0.511264 2.35311 0.67027 2.23334 0.847881 2.14771C1.02549 2.06208 1.21823 2.01227 1.41509 2.00112C1.81267 1.97862 2.2029 2.11497 2.49994 2.38019L4.08394 3.79419C4.13552 3.85514 4.19904 3.90487 4.2706 3.9403C4.34215 3.97573 4.4202 3.99611 4.49994 4.00019C4.6323 4.00016 4.75924 3.94766 4.85294 3.85419L8.46594 0.41419C8.75604 0.151687 9.13722 0.0129134 9.52818 0.0274675C9.91915 0.0420216 10.289 0.208751 10.5587 0.492096C10.8285 0.775442 10.9769 1.15298 10.9723 1.54419C10.9676 1.93539 10.8104 2.30931 10.5339 2.58619L6.94794 6.00019C6.62575 6.31972 6.24366 6.57252 5.82359 6.74412C5.40351 6.91572 4.95371 7.00274 4.49994 7.00019V7.00019ZM23.9999 3.50019C23.9999 3.10237 23.8419 2.72083 23.5606 2.43953C23.2793 2.15823 22.8978 2.00019 22.4999 2.00019H14.4999C14.1021 2.00019 13.7206 2.15823 13.4393 2.43953C13.158 2.72083 12.9999 3.10237 12.9999 3.50019C12.9999 3.89801 13.158 4.27955 13.4393 4.56085C13.7206 4.84215 14.1021 5.00019 14.4999 5.00019H22.4999C22.8978 5.00019 23.2793 4.84215 23.5606 4.56085C23.8419 4.27955 23.9999 3.89801 23.9999 3.50019ZM6.94794 14.0002L10.5339 10.5862C10.8104 10.3093 10.9676 9.93539 10.9723 9.54419C10.9769 9.15298 10.8285 8.77544 10.5587 8.4921C10.289 8.20875 9.91915 8.04202 9.52818 8.02747C9.13722 8.01291 8.75604 8.15169 8.46594 8.41419L4.85294 11.8542C4.75918 11.9479 4.63202 12.0006 4.49944 12.0006C4.36686 12.0006 4.23971 11.9479 4.14594 11.8542L2.56094 10.2682C2.27955 9.98679 1.89789 9.82871 1.49994 9.82871C1.10199 9.82871 0.720337 9.98679 0.438942 10.2682C0.157548 10.5496 -0.0005383 10.9312 -0.0005383 11.3292C-0.0005383 11.7271 0.157548 12.1088 0.438942 12.3902L2.02494 13.9752C2.6769 14.6268 3.55958 14.9949 4.4813 14.9995C5.40303 15.0042 6.2894 14.6451 6.94794 14.0002V14.0002ZM23.9999 11.5002C23.9999 11.1024 23.8419 10.7208 23.5606 10.4395C23.2793 10.1582 22.8978 10.0002 22.4999 10.0002H14.4999C14.1021 10.0002 13.7206 10.1582 13.4393 10.4395C13.158 10.7208 12.9999 11.1024 12.9999 11.5002C12.9999 11.898 13.158 12.2795 13.4393 12.5609C13.7206 12.8422 14.1021 13.0002 14.4999 13.0002H22.4999C22.8978 13.0002 23.2793 12.8422 23.5606 12.5609C23.8419 12.2795 23.9999 11.898 23.9999 11.5002ZM6.94794 22.0002L10.5339 18.5862C10.8104 18.3093 10.9676 17.9354 10.9723 17.5442C10.9769 17.153 10.8285 16.7754 10.5587 16.4921C10.289 16.2088 9.91915 16.042 9.52818 16.0275C9.13722 16.0129 8.75604 16.1517 8.46594 16.4142L4.85294 19.8542C4.75924 19.9477 4.6323 20.0002 4.49994 20.0002C4.4202 19.9961 4.34215 19.9757 4.2706 19.9403C4.19904 19.9049 4.13552 19.8551 4.08394 19.7942L2.49994 18.3802C2.2029 18.115 1.81267 17.9786 1.41509 18.0011C1.01751 18.0236 0.645159 18.2031 0.379942 18.5002C0.114726 18.7972 -0.0216285 19.1875 0.000875914 19.585C0.0233803 19.9826 0.2029 20.355 0.499942 20.6202L2.02294 21.9752C2.67499 22.6274 3.55809 22.9958 4.4803 23.0005C5.40252 23.0052 6.28931 22.6457 6.94794 22.0002ZM23.9999 19.5002C23.9999 19.1024 23.8419 18.7208 23.5606 18.4395C23.2793 18.1582 22.8978 18.0002 22.4999 18.0002H14.4999C14.1021 18.0002 13.7206 18.1582 13.4393 18.4395C13.158 18.7208 12.9999 19.1024 12.9999 19.5002C12.9999 19.898 13.158 20.2795 13.4393 20.5609C13.7206 20.8422 14.1021 21.0002 14.4999 21.0002H22.4999C22.8978 21.0002 23.2793 20.8422 23.5606 20.5609C23.8419 20.2795 23.9999 19.898 23.9999 19.5002Z" fill="white"/>
</g>
<defs>
<clipPath id="clip0_120_63">
<rect width="24" height="24" fill="white"/>
</clipPath>
</defs>
</svg>
