<svg width="287" height="65" viewBox="0 0 287 65" fill="none" xmlns="http://www.w3.org/2000/svg">
<path d="M28.1345 46.7708C16.8116 46.7708 7.63452 50.5781 7.63452 55.2708C7.63452 59.9635 16.8116 63.7708 28.1345 63.7708C39.4574 63.7708 48.6345 59.9635 48.6345 55.2708C48.6345 50.5781 39.4574 46.7708 28.1345 46.7708Z" fill="#126B99"/>
<path d="M0.452235 30.0781C0.624109 28.5885 2.91057 30.0781 2.91057 30.0781C2.91057 30.0781 -0.558181 25.9948 1.13973 24.724C2.84286 23.4479 5.59286 27.3802 8.30119 27.3802C8.63973 27.3802 9.06161 27.3229 9.55119 27.2083C12.9574 26.4219 19.546 23.2344 23.1554 22.5C25.8637 21.9531 30.171 22.125 32.8116 22.3073C32.8116 17.8229 30.7595 16.375 30.7699 13.5052C30.7699 9.69792 34.1658 6.60938 38.3533 6.60938C42.0512 6.60938 45.1293 9.01562 45.8012 12.1979C47.6554 14.7708 50.4783 15.5625 53.8689 15.3125C54.697 15.2552 55.197 16.2604 54.6397 16.8698C53.0408 18.6042 48.5408 19.0052 43.6918 18.3958C43.0772 18.9583 42.3481 19.4219 41.5408 19.7552V19.7604C41.5408 19.7604 46.5824 26.9792 43.0877 35.9948C40.3637 43.0156 34.5095 45.1771 30.4731 45.7969V50.0781C30.4731 51.0365 31.1293 51.8646 32.0616 52.0781L39.1502 53.6979C37.7491 54.2135 36.1189 54.4479 33.8533 54.4479L36.6293 55.3229C31.0252 56.9323 25.5512 57.1771 20.2647 55.3229L23.5772 53.1979C24.2699 52.75 24.6918 51.9792 24.6918 51.1458V45.9635C20.8116 45.8281 15.3585 45.3333 12.6606 43.6875C10.1866 42.1823 7.41578 39.1302 6.31161 37.8438C6.01473 37.5052 5.64494 37.2448 5.21786 37.099C4.83244 36.9531 4.33244 36.7083 3.99911 36.2865C3.72307 35.9375 3.61369 35.4896 3.57723 35.099C3.51994 34.474 3.24911 33.8958 2.79078 33.474C1.81161 32.599 0.327235 31.0833 0.452235 30.0781Z" fill="#B2E5FF"/>
<path d="M23.5772 53.1979L20.2647 55.3229C25.5512 57.177 31.0251 56.9323 36.6293 55.3229L33.8533 54.4479H33.848L28.7543 52.8489C28.0564 52.6302 27.5824 51.9791 27.5824 51.2448V46.0156C26.822 46.0156 25.822 46.0052 24.6918 45.9635V51.1458C24.6918 51.9791 24.2699 52.75 23.5772 53.1979Z" fill="#FFA520"/>
<path d="M27.5824 46.0156V51.2448C27.5824 51.9792 28.0564 52.6302 28.7543 52.849L33.848 54.4479H33.8532C36.1189 54.4479 37.7491 54.2135 39.1501 53.6979L32.0616 52.0781C31.1293 51.8646 30.473 51.0365 30.473 50.0781V45.7969C29.3272 45.9687 28.322 46.0156 27.5824 46.0156Z" fill="#FFA520"/>
<path d="M45.9366 13.5052C45.9366 15.4166 45.0824 17.1458 43.6918 18.3958C48.5407 19.0052 53.0407 18.6041 54.6345 16.8698C55.197 16.2604 54.6918 15.2552 53.8689 15.3125C50.4782 15.5625 47.6553 14.7708 45.8011 12.1979C45.8897 12.6198 45.9366 13.0573 45.9366 13.5052Z" fill="#FFA520"/>
<path d="M9.55115 27.2083C9.55115 27.2083 8.0824 28.0052 8.0824 29.8021C8.0824 30.8489 8.72302 31.8385 9.25948 32.4844C9.5824 32.8698 9.60323 33.4219 9.33761 33.8594C9.11886 34.2187 8.97302 34.7239 9.15531 35.3854C9.53031 36.7552 13.947 39.1041 17.5355 39.3385C17.8636 39.3646 18.1189 39.625 18.1293 39.9583C18.1397 40.1666 18.1866 40.4062 18.3168 40.6458C19.0095 41.9635 27.5824 43.5677 34.322 39.2396C41.0616 34.901 38.3532 26.5677 38.3532 26.5677C38.3532 26.5677 39.3011 37.2448 29.4626 39.3333C19.6241 41.4271 19.723 38.75 19.723 38.75C19.723 38.75 18.973 37.7448 17.5564 37.7448C16.1449 37.7448 9.40011 36.1562 11.4834 34.3125C11.4834 34.3125 12.7907 33.0364 10.9782 31.6146C8.65011 29.7916 10.7386 26.8802 10.7386 26.8802C10.3116 27.0104 9.91573 27.1198 9.55115 27.2083Z" fill="#99DDFF"/>
<path d="M30.4731 45.7969C34.5095 45.1771 40.3637 43.0156 43.0876 35.9948C46.5824 26.9791 41.5408 19.7604 41.5408 19.7604V19.7552C40.572 20.1666 39.4939 20.3958 38.3533 20.3958C38.3533 20.3958 50.5095 36.2291 31.7439 42.6719C31.7439 42.6719 17.8949 46.4948 8.08243 37.4479C8.08243 37.4479 7.00951 36.0573 5.70743 35.2708C4.41576 34.4896 2.61888 30.4583 5.56159 31.1562C5.56159 31.1562 -0.162366 24.9739 2.90534 24.7291V24.7239C2.23868 24.4219 1.64493 24.3437 1.13972 24.7239C-0.558199 25.9948 2.91055 30.0781 2.91055 30.0781C2.91055 30.0781 0.624091 28.5885 0.447009 30.0781C0.327217 31.0833 1.81159 32.5989 2.79076 33.4739C3.24909 33.8958 3.51993 34.4739 3.57722 35.0989C3.61368 35.4896 3.72305 35.9375 3.99388 36.2864C4.33243 36.7083 4.83242 36.9531 5.21784 37.0989C5.64493 37.2448 6.01472 37.5052 6.31159 37.8437C7.41576 39.1302 10.1866 42.1823 12.6606 43.6875C15.3585 45.3333 20.8116 45.8281 24.6918 45.9635C25.822 46.0052 26.822 46.0156 27.5824 46.0156C28.322 46.0156 29.3272 45.9687 30.4731 45.7969Z" fill="#99DDFF"/>
<path d="M38.4157 14.1927C38.4157 14.4583 38.5095 14.6875 38.697 14.875C38.8845 15.0677 39.1136 15.1614 39.3793 15.1614C39.6449 15.1614 39.874 15.0677 40.0615 14.875C40.249 14.6875 40.3428 14.4583 40.3428 14.1927C40.3428 13.9219 40.249 13.6927 40.0615 13.5052C39.874 13.3177 39.6449 13.2239 39.3793 13.2239C39.1136 13.2239 38.8845 13.3177 38.697 13.5052C38.5095 13.6927 38.4157 13.9219 38.4157 14.1927Z" fill="#02006D"/>
<path d="M0.624104 29.0833C0.905354 28.9531 1.23348 28.9531 1.56681 29.0156C0.879312 27.9948 0.124103 26.5885 0.243895 25.5052C0.295979 25.0313 0.514728 24.6406 0.879312 24.3698C2.03556 23.5 3.40535 24.4167 4.85327 25.3854C5.99389 26.151 7.17619 26.9375 8.30119 26.9375C9.6814 26.9375 12.7387 25.7396 15.7022 24.5833C18.3689 23.5417 21.1241 22.4635 23.0668 22.0677C25.6762 21.5365 29.671 21.6615 32.3533 21.8281C32.2804 19.7083 31.7179 18.3021 31.2126 17.0573C30.7543 15.9323 30.322 14.8698 30.3272 13.5052C30.3272 9.45833 33.9262 6.17188 38.3533 6.17188C42.2179 6.17188 45.447 8.67708 46.2074 12.0052C47.822 14.1927 50.3168 15.1354 53.8376 14.8698C54.4001 14.8333 54.9262 15.1406 55.1762 15.6615C55.421 16.1771 55.3376 16.7552 54.9574 17.1719C53.7908 18.4375 51.2126 19.1094 47.7595 19.1094C46.546 19.1094 45.2283 19.026 43.822 18.8594C43.3272 19.2813 42.7804 19.651 42.1762 19.9531C43.197 21.6823 46.546 28.2917 43.4991 36.1563C40.7595 43.2135 34.9106 45.4635 30.9106 46.1615V50.0781C30.9106 50.8333 31.421 51.4792 32.1554 51.6458L39.2439 53.2708C39.4366 53.3125 39.572 53.4792 39.5876 53.6719C39.5981 53.8698 39.4835 54.0469 39.3012 54.1146C38.4262 54.4375 37.4679 54.651 36.3429 54.7708L36.7595 54.901C36.947 54.9635 37.072 55.1354 37.0668 55.3281C37.0668 55.526 36.9366 55.6979 36.7491 55.75C33.6814 56.6302 30.7908 57.0677 28.0356 57.0677C25.2699 57.0677 22.6449 56.625 20.1241 55.7396C19.9626 55.6875 19.8481 55.5417 19.8324 55.375C19.8116 55.2083 19.8897 55.0417 20.0304 54.9531L23.3376 52.8229C23.9106 52.4583 24.2491 51.8281 24.2491 51.151V46.3906C20.1345 46.2188 15.0564 45.6719 12.4314 44.0677C9.90015 42.5208 7.07723 39.401 5.97827 38.1302C5.73869 37.8542 5.42098 37.6354 5.07202 37.5104C4.65015 37.3594 4.0616 37.0729 3.65535 36.5573C3.3689 36.1927 3.19181 35.7188 3.13973 35.1406C3.09285 34.6094 2.86369 34.1354 2.4939 33.8073C0.733479 32.224 -0.0998542 30.9531 0.00952043 30.0208C0.0824364 29.4531 0.384521 29.1979 0.624104 29.0833ZM54.3116 16.5729C54.5095 16.3542 54.4158 16.1146 54.3845 16.0417C54.3116 15.8906 54.1397 15.7344 53.9001 15.7552C50.6293 15.9948 48.1554 15.2656 46.3741 13.5313C46.3689 15.2448 45.7126 16.8125 44.6293 18.0625C49.2804 18.526 53.0304 17.9635 54.3116 16.5729ZM37.3324 53.7396L31.9626 52.5104C30.8272 52.25 30.0304 51.25 30.0304 50.0781V46.2917C29.2439 46.3958 28.5564 46.4375 28.0199 46.4531V51.2448C28.0199 51.7917 28.3689 52.2656 28.8845 52.4271L33.9106 54.0052C35.2543 54.0052 36.3637 53.9219 37.3324 53.7396ZM23.8116 53.5677L21.2856 55.1927C25.4991 56.4844 30.0251 56.5156 35.046 55.2917L28.6241 53.2708C27.7387 52.9896 27.1449 52.1771 27.1449 51.2448V46.4531C26.5251 46.4531 25.8481 46.4427 25.1293 46.4219V51.151C25.1293 52.1354 24.6345 53.0365 23.8116 53.5677ZM3.08244 33.1458C3.61369 33.625 3.94702 34.3073 4.01473 35.0573C4.05119 35.4635 4.16056 35.7813 4.34285 36.0104C4.6189 36.3594 5.05119 36.5677 5.36369 36.6823C5.85848 36.8594 6.30119 37.1615 6.63973 37.5521C7.71265 38.7917 10.4574 41.8333 12.8897 43.3125C16.2335 45.3542 24.2751 45.5729 27.5824 45.5729C30.2387 45.5729 39.171 44.8698 42.6762 35.8333C45.6658 28.1354 42.2126 21.6979 41.3637 20.2969C40.4314 20.6458 39.4158 20.8385 38.3533 20.8385C38.1085 20.8385 37.9158 20.6406 37.9158 20.3958C37.9158 20.1563 38.1085 19.9583 38.3533 19.9583C42.296 19.9583 45.4991 17.0625 45.4991 13.5052C45.4991 9.94792 42.296 7.05208 38.3533 7.05208C34.4106 7.05208 31.2074 9.94792 31.2074 13.5052C31.2022 14.6979 31.5824 15.6354 32.0251 16.724C32.5668 18.0573 33.171 19.5677 33.2335 21.8906C34.3429 21.974 35.0876 22.0521 35.1866 22.0625C35.4262 22.0885 35.6033 22.3073 35.5772 22.5469C35.5512 22.7917 35.3376 22.9635 35.0929 22.9375C35.0147 22.9323 27.2595 22.1198 23.2439 22.9323C21.3741 23.3125 18.6554 24.375 16.0251 25.4063C13.6449 26.3385 11.3637 27.2292 9.72306 27.6198C9.50431 27.75 8.52515 28.4375 8.52515 29.8021C8.52515 30.7135 9.10848 31.6094 9.59806 32.1979C10.0356 32.724 10.0824 33.4844 9.71265 34.0885C9.50431 34.4375 9.45744 34.8333 9.57723 35.2656C9.88452 36.375 14.1085 38.6719 17.5616 38.901C18.1137 38.9323 18.5512 39.3854 18.572 39.9427C18.5772 40.1198 18.6241 40.2865 18.7074 40.4427C18.7595 40.5417 19.1449 40.8646 20.2856 41.1719C22.7908 41.8333 28.8949 42.2031 34.0824 38.8646C40.4522 34.7708 38.0408 27.0313 37.9366 26.7031C37.8637 26.4688 37.9887 26.2188 38.2179 26.1458C38.447 26.0677 38.697 26.1979 38.7699 26.4271C38.8012 26.5156 41.5043 35.1406 34.5564 39.6094C31.0929 41.8385 27.2335 42.4896 24.2074 42.4896C22.4783 42.4896 21.0199 42.276 20.0616 42.0208C19.2595 41.8125 18.2335 41.4323 17.9314 40.8542C17.7856 40.5833 17.7074 40.2865 17.697 39.9792C17.6918 39.8698 17.6137 39.7865 17.5095 39.7813C13.9679 39.5469 9.21265 37.2292 8.73348 35.5052C8.55119 34.8333 8.62931 34.1823 8.96265 33.6302C9.13973 33.3438 9.1241 33.0052 8.92619 32.7656C8.34285 32.0625 7.64494 30.9792 7.64494 29.8021C7.64494 28.9479 7.93139 28.2969 8.26994 27.8177C6.88973 27.8073 5.55119 26.9115 4.3689 26.1198C2.9366 25.1615 2.01994 24.6146 1.40535 25.0781C1.23348 25.2031 1.14494 25.3698 1.1189 25.6042C0.983479 26.8229 2.60848 29.0365 3.2491 29.7917C3.38973 29.9531 3.38973 30.2031 3.2439 30.3646C3.10327 30.5313 2.85848 30.5677 2.67619 30.4479C2.17098 30.1198 1.30119 29.7396 0.999104 29.8854C0.978272 29.8958 0.910562 29.9271 0.88452 30.1302C0.827228 30.5833 1.37931 31.6146 3.08244 33.1458Z" fill="#02006D"/>
<path d="M32.0407 9.10935C32.0407 9.10935 33.624 10.625 38.2543 10.625C42.7803 10.625 44.473 9.10935 44.473 9.10935V3.72394H32.0407V9.10935Z" fill="#1D2740"/>
<path d="M38.2855 10.8385C42.8376 10.8385 44.5564 9.33329 44.6293 9.27079L44.6866 9.20829V3.51038H31.8272V9.20308L31.9053 9.26558C31.973 9.32808 33.6189 10.8385 38.2855 10.8385ZM44.2543 9.00517C43.9262 9.276 42.1241 10.4062 38.2543 10.4062C34.296 10.4062 32.5876 9.276 32.2595 9.01038V3.94267H44.2543V9.00517Z" fill="#02006D"/>
<path d="M34.223 5.67188V11.3438L33.8428 10.8385L33.4574 11.1667V5.45312" fill="#FFA520"/>
<path d="M34.4418 11.9948V5.67188H34.0043V10.6979L33.874 10.526L33.6761 10.6927V5.45312H33.2438V11.6354L33.8063 11.1563L34.4418 11.9948Z" fill="#02006D"/>
<path d="M38.2543 7.14579L48.0668 3.68746L38.2543 0.229126L28.447 3.68746L38.2543 7.14579Z" fill="#122557"/>
<path d="M38.2543 7.375L48.7178 3.6875L38.2543 0L27.796 3.6875L38.2543 7.375ZM47.4158 3.6875L38.2543 6.91667L29.098 3.6875L38.2543 0.458333L47.4158 3.6875Z" fill="#02006D"/>
<path d="M80.0263 37.5416C78.2138 42.7551 72.8023 45.203 68.0627 45.203C64.4273 45.203 62.4533 43.2708 62.4533 40.5833C62.4533 37.0676 64.5836 35.0937 68.4533 35.0937C69.7971 35.8853 70.9429 36.2395 71.9325 36.2395C74.3023 36.2395 75.6044 34.302 75.6044 32.4478C75.6044 30.828 74.6148 29.2447 72.4065 29.1666C70.0367 29.1666 68.8127 27.5468 68.8127 25.6926C68.8127 23.1249 70.2711 21.1874 72.8804 21.1874C74.1044 21.1874 75.2867 22.0572 75.5627 23.0051C76.12 24.9791 77.2242 25.8905 78.6044 25.8905C79.9898 25.8905 81.3336 24.9426 81.4533 23.203C81.6877 19.0155 77.9377 15.8958 73.0002 15.8958C67.3492 15.8958 62.4533 20.401 62.4533 25.8489C62.4533 27.5103 63.0054 28.9687 63.9898 30.1562C58.1044 31.2603 55.9742 36.7135 55.9742 40.901C55.9742 46.2343 60.7138 50.1822 67.9429 50.1822C75.3283 50.1822 82.5158 45.9583 84.8075 38.453C84.9273 38.1353 84.9638 37.8176 84.9638 37.5416C84.9638 36.1614 83.8596 35.4114 82.6773 35.4114C81.5679 35.4114 80.4221 36.0833 80.0263 37.5416Z" fill="#26124E"/>
<path d="M97.3711 38.4531C95.3555 43.5468 91.5222 45.4427 88.5222 45.4427C85.7982 45.4427 84.0586 43.8645 84.0586 41.8489C84.0586 41.4114 84.1367 40.9375 84.293 40.427L86.7044 33.5937C87.0586 32.6458 87.8503 32.052 88.4805 32.052C89.2722 32.052 89.668 32.526 89.668 33.1979C89.668 33.6302 89.5065 34.1041 89.2305 34.6562C89.0326 35.052 88.918 35.4479 88.918 35.8437C88.918 37.2239 90.2201 38.2916 91.6003 38.2916C92.7461 38.2916 93.9701 37.5833 94.6836 35.7656C95.0794 34.6979 95.2357 33.75 95.2357 32.8437C95.2357 29.1302 92.1576 26.9948 88.7565 26.9948C85.6367 26.9948 82.2826 28.8125 80.8607 32.9583L78.6055 39.5937C78.293 40.5468 78.1315 41.4948 78.1315 42.3593C78.1315 46.9062 82.0847 50.1823 87.8867 50.1823C93.7357 50.1823 99.5013 46.8645 102.033 39.677C102.147 39.401 102.189 39.1198 102.189 38.8854C102.189 37.6198 100.965 36.8333 99.7409 36.8333C98.7513 36.8333 97.7617 37.3073 97.3711 38.4531Z" fill="#26124E"/>
<path d="M112.616 41.927C112.616 41.9687 112.616 41.3333 112.46 40.5833C112.736 40.3854 113.012 40.0677 113.246 39.7135C113.918 38.7291 115.106 35.2916 115.106 33.7083C115.106 29.6823 111.788 26.9948 107.522 26.9948C103.809 26.9948 100.293 29.052 99.0276 32.5677L96.1474 40.7031C95.788 41.6875 95.6318 42.677 95.6318 43.5468C95.6318 47.6927 99.1839 50.1823 103.215 50.1823C106.298 50.1823 109.101 49.1927 110.762 46.3489C111.47 46.5468 112.298 46.6666 113.132 46.6666C117.793 46.6666 121.465 43.3489 122.809 39.2031C122.923 38.7656 123.007 38.3698 123.007 38.0156C123.007 36.5573 121.939 35.7239 120.793 35.7239C119.726 35.7239 118.621 36.3593 118.184 37.8177C117.319 40.2656 115.502 41.9687 113.168 41.9687C113.012 41.9687 112.772 41.9687 112.616 41.927ZM108.944 35.8437C108.824 36.1979 108.705 36.5156 108.668 36.8333C106.496 36.5937 104.559 38.3698 104.559 40.7395C104.595 42.0833 105.267 42.7968 106.022 43.427C105.507 44.8125 104.361 45.4843 103.137 45.4843C101.595 45.4843 101.199 44.5312 101.199 43.5833C101.199 42.8333 101.397 42.125 101.559 41.7291L104.361 33.7083C104.835 32.4062 106.215 31.6562 107.444 31.6562C108.668 31.6562 109.455 32.4843 109.455 33.3958C109.455 34.1041 109.22 35.0156 108.944 35.8437Z" fill="#26124E"/>
<path d="M121.938 43.7447L130.235 19.7291C130.391 19.2551 130.47 18.7812 130.47 18.3853C130.47 16.8853 129.048 15.8958 127.865 15.8958C126.36 15.8958 125.376 16.7239 124.74 18.5051L116.527 41.9687C116.209 42.8749 116.053 43.703 116.053 44.5312C116.053 48.1666 119.053 50.1822 122.532 50.1822C126.282 50.1822 130.985 47.8541 133.751 39.6353C133.829 39.3593 133.865 39.0833 133.865 38.8437C133.865 37.5833 132.761 36.6718 131.537 36.6718C130.548 36.6718 129.485 37.2655 128.928 38.7291C127.152 43.4687 124.86 45.4843 123.006 45.4843C122.214 45.4843 121.782 45.0051 121.782 44.4166C121.782 44.2551 121.86 43.9791 121.938 43.7447Z" fill="#26124E"/>
<path d="M147.537 39.0416C145.797 43.625 141.646 45.4843 138.292 45.4843C135.407 45.4843 133.589 44.0989 133.589 42.2812C133.589 41.927 133.631 41.5729 133.787 41.177L134.105 40.427C135.25 41.1354 136.672 41.6093 138.25 41.6093C141.844 41.6093 145.006 39.3593 146.073 35.802C146.271 35.052 146.391 34.302 146.391 33.6302C146.391 29.8802 143.427 26.9948 138.964 26.9948C135.448 26.9948 132.011 29.052 130.631 33L128.297 39.7552C127.98 40.7031 127.787 41.651 127.787 42.5573C127.787 47.2604 132.209 50.1823 137.974 50.1823C143.464 50.1823 149.709 47.4948 152.313 39.9531C152.433 39.6354 152.474 39.3593 152.474 39.1198C152.474 37.8958 151.365 37.2239 150.183 37.2239C149.073 37.2239 147.891 37.8177 147.537 39.0416ZM138.844 31.6562C139.948 31.6562 140.662 32.5677 140.662 33.7083C140.662 34.026 140.62 34.3437 140.506 34.6562C140.11 35.9635 138.922 36.4375 137.74 36.4375C136.99 36.4375 136.235 36.276 135.683 35.9635L136.516 33.5937C136.948 32.3698 137.938 31.6562 138.844 31.6562Z" fill="#26124E"/>
<path d="M183.077 37.1458C181.259 42.0833 178.692 45.2031 176.124 45.2031C175.14 45.2031 174.468 44.651 174.468 43.5833C174.468 43.0729 174.624 42.3229 174.9 41.5729L182.603 20.0416C182.843 19.3697 182.957 18.7812 182.957 18.2656C182.957 16.4479 181.619 15.5781 180.155 15.5781C178.613 15.5781 176.916 16.4895 176.285 18.2291C175.061 16.4479 172.452 15.8958 170.712 15.8958C166.843 15.8958 163.009 18.1093 161.671 21.901L155.228 40.0312C154.874 41.0208 154.676 42.0468 154.676 42.9947C154.676 47.1822 158.035 50.1822 162.421 50.1822C164.749 50.1822 167.317 49.1562 169.291 47.2187C170.634 49.1562 173.004 50.1822 175.65 50.1822C181.577 50.1822 185.488 45.2864 187.858 38.1354C187.978 37.8176 188.015 37.5051 188.015 37.2239C188.015 35.8854 186.91 35.0937 185.686 35.0937C184.619 35.0937 183.515 35.7239 183.077 37.1458ZM163.765 44.2187C162.301 44.2187 161.395 43.1926 161.395 41.7708C161.395 41.2968 161.509 40.7395 161.707 40.151L167.16 24.6249C167.832 22.7708 169.212 21.6249 170.796 21.6249C172.572 21.6249 174.15 23.0833 174.15 24.7031C174.15 24.9791 174.072 25.2551 173.994 25.5364L169.254 38.8437C167.712 43.1926 165.775 44.2187 163.765 44.2187Z" fill="#26124E"/>
<path d="M203.184 38.8073C201.444 43.5468 199.272 45.4843 197.418 45.4843C196.705 45.4843 196.309 45.125 196.309 44.4531C196.309 44.177 196.387 43.8645 196.507 43.4687L199.59 34.6979C199.866 33.9062 200.022 33.1979 200.022 32.526C200.022 29.3645 197.335 26.9948 194.179 26.9948C192.637 26.9948 191.413 27.3489 190.387 28.1041C190.147 27.3906 189.163 26.9948 188.095 26.9948C186.986 26.9948 185.923 27.5104 185.528 28.6145L178.929 47.0625C178.814 47.4166 178.772 47.7343 178.772 48.0468C178.772 49.5104 179.918 50.2604 181.184 50.2604C182.564 50.2604 184.142 49.3906 184.736 47.6145C186.121 43.7812 188.017 38.3698 189.356 34.5781C190.423 32.6041 191.809 31.6562 192.913 31.6562C193.627 31.6562 194.137 32.1302 194.137 32.8802C194.137 33.1562 194.059 33.5156 193.939 33.8698L191.059 42.0052C190.741 42.9166 190.543 43.7812 190.543 44.6145C190.543 48.2448 193.543 50.1823 196.903 50.1823C200.934 50.1823 205.236 47.4583 207.965 39.7552C208.08 39.4375 208.158 39.1198 208.158 38.8437C208.158 37.5833 207.017 36.9114 205.83 36.9114C204.762 36.9114 203.58 37.5052 203.184 38.8073Z" fill="#26124E"/>
<path d="M226.645 36.8333C225.541 36.8333 224.317 37.5051 223.843 39.0051C222.302 43.8645 219.812 45.4843 218.036 45.4843C217.364 45.4843 216.968 45.1249 216.968 44.4947C216.968 44.177 217.046 43.7812 217.166 43.3489L221.588 30.552C221.749 30.078 221.828 29.6405 221.828 29.2447C221.828 27.5103 220.406 26.5989 218.942 26.5989C217.838 26.5989 216.692 27.1145 216.062 28.1041C215.229 27.5885 213.692 26.9947 211.677 26.9947C209.067 26.9947 206.223 28.4166 205.156 31.4583L201.447 42.0833C201.208 42.7968 201.052 43.5051 201.052 44.2187C201.052 47.4947 203.697 50.1822 207.171 50.1822C209.031 50.1822 210.927 49.3541 212.385 48.0468C213.651 49.8645 216.453 50.1822 217.64 50.1822C220.916 50.1822 225.302 48.5208 227.833 42.1249C228.385 40.5833 228.817 39.5937 228.817 38.8853C228.817 37.5416 227.791 36.8333 226.645 36.8333ZM213.609 36.4374L211.713 42.3228C210.885 44.8905 209.385 45.4843 208.557 45.4843C207.687 45.4843 207.249 44.927 207.249 44.0208C207.249 43.5051 207.369 43.0312 207.489 42.677L210.015 34.7395C210.765 32.328 211.874 32.0103 212.505 32.0103C213.255 32.0103 214.083 32.7603 214.083 34.1041C214.083 34.6978 213.927 35.4478 213.609 36.4374Z" fill="#26124E"/>
<path d="M233.242 23.3593C235.018 23.3593 236.482 21.901 236.482 20.0833C236.482 18.3073 235.018 16.8854 233.242 16.8854C231.466 16.8854 230.003 18.3073 230.003 20.0833C230.003 21.901 231.466 23.3593 233.242 23.3593ZM230.596 36.2395L232.216 31.5781C232.45 30.8281 232.732 30.0781 232.732 29.5625C232.732 28.2604 231.664 26.9948 230.164 26.9948C228.779 26.9948 227.555 27.9062 227.122 29.2448C225.143 34.8958 222.575 42.401 220.367 48.6406C218.586 49.75 217.523 49.75 215.19 50.3802C211.044 51.4843 207.607 52.7916 206.539 56.2239C206.383 56.8593 206.305 57.4479 206.305 58.0833C206.305 61.4791 209.07 64.4427 213.69 64.4427C217.602 64.4427 221.273 62.3489 222.935 57.7656C223.487 56.1093 224.117 54.3698 224.711 52.75C230.398 50.9739 236.164 47.8906 238.893 39.5937C239.008 39.2812 239.049 38.9635 239.049 38.6875C239.049 37.3437 238.023 36.5573 236.836 36.5573C235.768 36.5573 234.628 37.2239 234.07 38.7656C232.612 42.7968 230.003 45.1666 226.883 46.7448L230.596 36.2395ZM217.919 54.5677L216.732 57.2552C216.102 58.677 214.758 59.4635 213.612 59.4635C212.664 59.4635 212.268 58.9114 212.268 58.2031C212.268 57.9635 212.31 57.6458 212.424 57.3698C213.018 55.9895 215.352 55.2395 217.919 54.5677Z" fill="#26124E"/>
<path d="M257.534 36.8333C256.43 36.8333 255.206 37.5051 254.732 39.0051C253.191 43.8645 250.701 45.4843 248.925 45.4843C248.253 45.4843 247.857 45.1249 247.857 44.4947C247.857 44.177 247.935 43.7812 248.055 43.3489L252.477 30.552C252.638 30.078 252.717 29.6405 252.717 29.2447C252.717 27.5103 251.295 26.5989 249.831 26.5989C248.727 26.5989 247.581 27.1145 246.951 28.1041C246.118 27.5885 244.581 26.9947 242.566 26.9947C239.956 26.9947 237.112 28.4166 236.045 31.4583L232.336 42.0833C232.097 42.7968 231.941 43.5051 231.941 44.2187C231.941 47.4947 234.586 50.1822 238.06 50.1822C239.92 50.1822 241.816 49.3541 243.274 48.0468C244.54 49.8645 247.342 50.1822 248.529 50.1822C251.805 50.1822 256.191 48.5208 258.722 42.1249C259.274 40.5833 259.706 39.5937 259.706 38.8853C259.706 37.5416 258.68 36.8333 257.534 36.8333ZM244.498 36.4374L242.602 42.3228C241.774 44.8905 240.274 45.4843 239.446 45.4843C238.576 45.4843 238.138 44.927 238.138 44.0208C238.138 43.5051 238.258 43.0312 238.378 42.677L240.904 34.7395C241.654 32.328 242.763 32.0103 243.394 32.0103C244.144 32.0103 244.972 32.7603 244.972 34.1041C244.972 34.6978 244.816 35.4478 244.498 36.4374Z" fill="#26124E"/>
<path d="M276.022 38.7291C274.282 43.4687 272.032 45.4843 270.256 45.4843C269.506 45.4843 269.032 45.0468 269.032 44.453C269.032 44.2968 269.069 44.0989 269.147 43.9426L272.386 34.7395C272.662 33.9895 272.741 33.276 272.741 32.6041C272.741 29.4426 270.256 26.9947 267.053 26.9947C266.105 26.9947 265.355 27.1562 264.527 27.5103L267.017 20.2395C267.215 19.6093 267.412 19.0155 267.412 18.5051C267.412 16.8437 266.105 15.8958 264.803 15.8958C263.261 15.8958 262.313 16.8072 261.563 18.8958L252.084 45.7603C251.886 46.3124 251.808 46.8228 251.808 47.2968C251.808 49.078 253.11 50.1822 254.454 50.1822C255.6 50.1822 256.782 49.4687 257.376 47.8124L262.157 34.302C262.985 32.802 264.329 31.6562 265.553 31.6562C266.345 31.6562 266.897 32.2499 266.897 32.9583C266.897 33.1978 266.855 33.4322 266.741 33.6718L263.855 41.927C263.537 42.8749 263.381 43.7447 263.381 44.5312C263.381 48.2447 266.543 50.1822 269.897 50.1822C273.652 50.1822 277.954 47.8541 280.803 39.6353C280.881 39.3593 280.918 39.1197 280.918 38.8853C280.918 37.6614 279.735 36.8697 278.47 36.8697C277.48 36.8697 276.418 37.4218 276.022 38.7291Z" fill="#26124E"/>
<path d="M283.121 43.7031C281.304 43.7031 279.882 45.1249 279.882 46.9426C279.882 48.7187 281.304 50.1822 283.121 50.1822C284.897 50.1822 286.361 48.7187 286.361 46.9426C286.361 45.1249 284.897 43.7031 283.121 43.7031Z" fill="#5AB8C2"/>
</svg>
